<?xml version="1.0" encoding="UTF-8"?>
<svg xmlns="http://www.w3.org/2000/svg" version="1.1" xmlns:xlink="http://www.w3.org/1999/xlink" viewBox="0 0 512 512">
  <!-- Generator: Adobe Illustrator 29.5.1, SVG Export Plug-In . SVG Version: 2.1.0 Build 141)  -->
  <defs>
    <style>
      .st0 {
        clip-path: url(#clippath-21);
      }

      .st1 {
        clip-path: url(#clippath-6);
      }

      .st2 {
        clip-path: url(#clippath-7);
      }

      .st3 {
        clip-path: url(#clippath-17);
      }

      .st4 {
        fill: url(#Gradient_bez_nazwy2);
      }

      .st4, .st5, .st6, .st7, .st8, .st9, .st10, .st11, .st12, .st13, .st14 {
        stroke-miterlimit: 3.57;
      }

      .st4, .st5, .st7, .st8, .st9, .st10, .st11, .st12, .st14 {
        stroke: #ffdc79;
      }

      .st15 {
        clip-path: url(#clippath-15);
      }

      .st16 {
        clip-path: url(#clippath-18);
      }

      .st17 {
        clip-path: url(#clippath-4);
      }

      .st18 {
        fill-opacity: .5;
      }

      .st18, .st19 {
        fill: #d9edff;
      }

      .st20 {
        opacity: .17;
      }

      .st21 {
        fill: #e79200;
      }

      .st22 {
        fill: url(#Gradient_bez_nazwy);
      }

      .st23 {
        opacity: .67;
      }

      .st24 {
        fill: #a1e471;
      }

      .st25 {
        clip-path: url(#clippath-9);
      }

      .st26 {
        clip-path: url(#clippath-10);
      }

      .st27 {
        stroke-linecap: round;
        stroke-miterlimit: 3.57;
        stroke-width: 3.57px;
      }

      .st27, .st6, .st28 {
        stroke: #fff;
      }

      .st27, .st6, .st28, .st29, .st13 {
        fill-opacity: 0;
      }

      .st5 {
        fill: url(#Gradient_bez_nazwy3);
      }

      .st30 {
        clip-path: url(#clippath-11);
      }

      .st31 {
        opacity: .2;
      }

      .st32 {
        fill: #c4e6f7;
      }

      .st33 {
        fill: none;
      }

      .st34 {
        opacity: .67;
      }

      .st35 {
        fill-opacity: .05;
      }

      .st6 {
        stroke-width: 1.78px;
      }

      .st36, .st37, .st38 {
        fill-opacity: .2;
      }

      .st36, .st39 {
        fill: #ffdc79;
      }

      .st40 {
        clip-path: url(#clippath-1);
      }

      .st41, .st42 {
        display: none;
      }

      .st41, .st43 {
        opacity: .5;
      }

      .st44 {
        fill: url(#Gradient_bez_nazwy_3);
      }

      .st7 {
        fill: url(#Gradient_bez_nazwy9);
      }

      .st45 {
        fill: #96d9ff;
      }

      .st45, .st46 {
        fill-opacity: .1;
      }

      .st47 {
        clip-path: url(#clippath-5);
      }

      .st48 {
        clip-path: url(#clippath-20);
      }

      .st49 {
        clip-path: url(#clippath-8);
      }

      .st50 {
        fill: url(#Gradient_bez_nazwy10);
      }

      .st8 {
        fill: url(#Gradient_bez_nazwy8);
      }

      .st28 {
        stroke-miterlimit: 4.28;
        stroke-width: 1.71px;
      }

      .st51 {
        clip-path: url(#clippath-3);
      }

      .st52 {
        clip-path: url(#clippath-12);
      }

      .st53 {
        opacity: .17;
      }

      .st54 {
        clip-path: url(#clippath-14);
      }

      .st55 {
        clip-path: url(#clippath-19);
      }

      .st9 {
        fill: url(#Gradient_bez_nazwy1);
      }

      .st56 {
        fill: url(#Gradient_bez_nazwy_21);
      }

      .st10 {
        fill: url(#Gradient_bez_nazwy5);
      }

      .st11 {
        fill: url(#Gradient_bez_nazwy6);
      }

      .st12 {
        fill: url(#Gradient_bez_nazwy7);
      }

      .st57 {
        opacity: .48;
      }

      .st58 {
        opacity: .84;
      }

      .st59 {
        clip-path: url(#clippath-16);
      }

      .st60 {
        clip-path: url(#clippath-2);
      }

      .st46 {
        fill: #fff;
      }

      .st37 {
        fill: #599ce3;
      }

      .st61 {
        clip-path: url(#clippath-13);
      }

      .st13 {
        stroke: #7bbaf2;
        stroke-width: 3.57px;
      }

      .st62 {
        fill: url(#Gradient_bez_nazwy_2);
      }

      .st63 {
        opacity: .84;
      }

      .st64 {
        clip-path: url(#clippath);
      }

      .st65 {
        fill: url(#Gradient_bez_nazwy_22);
      }

      .st14 {
        fill: url(#Gradient_bez_nazwy4);
      }
    </style>
    <clipPath id="clippath">
      <rect class="st33" x="28.86" y="-14.82" width="496.54" height="494.46"/>
    </clipPath>
    <linearGradient id="Gradient_bez_nazwy" data-name="Gradient bez nazwy" x1="315.28" y1="424.61" x2="37.16" y2="162.48" gradientTransform="translate(93.1 520.88) scale(.89 -.89)" gradientUnits="userSpaceOnUse">
      <stop offset="0" stop-color="#75b9de"/>
      <stop offset=".5" stop-color="#5da0da"/>
      <stop offset="1" stop-color="#4587d5"/>
    </linearGradient>
    <clipPath id="clippath-1">
      <polygon class="st33" points="100.57 20.17 589.56 106.04 503.34 592.99 14.34 507.12 100.57 20.17"/>
    </clipPath>
    <clipPath id="clippath-2">
      <polygon class="st33" points="150.22 -16.91 639.21 68.95 552.99 555.9 64 470.04 150.22 -16.91"/>
    </clipPath>
    <clipPath id="clippath-3">
      <polygon class="st33" points="199.87 -16.91 688.87 68.95 602.64 555.9 113.65 470.04 199.87 -16.91"/>
    </clipPath>
    <clipPath id="clippath-4">
      <polygon class="st33" points="-11.15 -84.9 477.84 .96 391.62 487.91 -97.38 402.05 -11.15 -84.9"/>
    </clipPath>
    <clipPath id="clippath-5">
      <polygon class="st33" points="-4.95 -78.72 484.04 7.14 397.82 494.09 -91.17 408.23 -4.95 -78.72"/>
    </clipPath>
    <clipPath id="clippath-6">
      <polygon class="st33" points="32.29 44.28 521.28 130.14 435.06 617.09 -53.93 531.23 32.29 44.28"/>
    </clipPath>
    <clipPath id="clippath-7">
      <polygon class="st33" points="81.95 7.19 570.94 93.06 484.72 580.01 -4.28 494.15 81.95 7.19"/>
    </clipPath>
    <clipPath id="clippath-8">
      <rect class="st33" x="31.78" y="-14.82" width="496.54" height="494.46"/>
    </clipPath>
    <radialGradient id="Gradient_bez_nazwy_2" data-name="Gradient bez nazwy 2" cx="138.49" cy="374.07" fx="138.49" fy="374.07" r="47.55" gradientTransform="translate(-300.81 1256.28) scale(2.98 -2.97)" gradientUnits="userSpaceOnUse">
      <stop offset="0" stop-color="#fff"/>
      <stop offset=".5" stop-color="#f7f7f7"/>
      <stop offset="1" stop-color="#efefef"/>
    </radialGradient>
    <radialGradient id="Gradient_bez_nazwy_3" data-name="Gradient bez nazwy 3" cx="169.1" cy="314.59" fx="169.1" fy="314.59" r="74.35" gradientTransform="translate(-141.95 946.09) scale(2.48 -2.47)" gradientUnits="userSpaceOnUse">
      <stop offset="0" stop-color="#fff"/>
      <stop offset=".5" stop-color="#f7f7f7"/>
      <stop offset="1" stop-color="#efefef"/>
    </radialGradient>
    <clipPath id="clippath-9">
      <rect class="st33" x="28.86" y="-14.82" width="496.54" height="494.46"/>
    </clipPath>
    <clipPath id="clippath-10">
      <rect class="st33" x="28.86" y="-14.82" width="496.54" height="494.46"/>
    </clipPath>
    <linearGradient id="Gradient_bez_nazwy1" data-name="Gradient bez nazwy" x1="108.87" y1="170.15" x2="65.4" y2="211.12" gradientTransform="matrix(1,0,0,1,0,0)" xlink:href="#Gradient_bez_nazwy"/>
    <linearGradient id="Gradient_bez_nazwy2" data-name="Gradient bez nazwy" x1="155.94" y1="174.14" x2="116.4" y2="211.41" gradientTransform="matrix(1,0,0,1,0,0)" xlink:href="#Gradient_bez_nazwy"/>
    <linearGradient id="Gradient_bez_nazwy3" data-name="Gradient bez nazwy" x1="204.89" y1="175.1" x2="163.35" y2="214.25" gradientTransform="matrix(1,0,0,1,0,0)" xlink:href="#Gradient_bez_nazwy"/>
    <linearGradient id="Gradient_bez_nazwy4" data-name="Gradient bez nazwy" x1="240.6" y1="174.14" x2="201.06" y2="211.41" gradientTransform="matrix(1,0,0,1,0,0)" xlink:href="#Gradient_bez_nazwy"/>
    <linearGradient id="Gradient_bez_nazwy5" data-name="Gradient bez nazwy" x1="279.29" y1="172.27" x2="235.93" y2="213.14" gradientTransform="matrix(1,0,0,1,0,0)" xlink:href="#Gradient_bez_nazwy"/>
    <linearGradient id="Gradient_bez_nazwy6" data-name="Gradient bez nazwy" x1="330.54" y1="165.15" x2="285.18" y2="207.9" gradientTransform="matrix(1,0,0,1,0,0)" xlink:href="#Gradient_bez_nazwy"/>
    <linearGradient id="Gradient_bez_nazwy7" data-name="Gradient bez nazwy" x1="373.46" y1="169.62" x2="325.14" y2="215.16" gradientTransform="matrix(1,0,0,1,0,0)" xlink:href="#Gradient_bez_nazwy"/>
    <linearGradient id="Gradient_bez_nazwy8" data-name="Gradient bez nazwy" x1="415.2" y1="167.88" x2="364.63" y2="215.54" gradientTransform="matrix(1,0,0,1,0,0)" xlink:href="#Gradient_bez_nazwy"/>
    <linearGradient id="Gradient_bez_nazwy9" data-name="Gradient bez nazwy" x1="454.71" y1="177.21" x2="409.67" y2="219.66" gradientTransform="matrix(1,0,0,1,0,0)" xlink:href="#Gradient_bez_nazwy"/>
    <clipPath id="clippath-11">
      <rect class="st33" x="88" y="46.49" width="384" height="384"/>
    </clipPath>
    <linearGradient id="Gradient_bez_nazwy10" data-name="Gradient bez nazwy" x1="294.01" y1="394.96" x2="78.5" y2="191.84" xlink:href="#Gradient_bez_nazwy"/>
    <clipPath id="clippath-12">
      <rect class="st33" x="107.2" y="104.09" width="384" height="384" transform="translate(-44.35 539.33) rotate(-80)"/>
    </clipPath>
    <clipPath id="clippath-13">
      <rect class="st33" x="145.6" y="75.29" width="384" height="384" transform="translate(15.74 553.35) rotate(-80)"/>
    </clipPath>
    <clipPath id="clippath-14">
      <rect class="st33" x="184" y="75.29" width="384" height="384" transform="translate(47.48 591.17) rotate(-80)"/>
    </clipPath>
    <clipPath id="clippath-15">
      <rect class="st33" x="20.8" y="22.49" width="384" height="384" transform="translate(-35.39 386.81) rotate(-80)"/>
    </clipPath>
    <clipPath id="clippath-16">
      <rect class="st33" x="25.6" y="27.29" width="384" height="384" transform="translate(-36.15 395.51) rotate(-80)"/>
    </clipPath>
    <clipPath id="clippath-17">
      <rect class="st33" x="54.4" y="122.81" width="384" height="384" transform="translate(-106.42 502.8) rotate(-80)"/>
    </clipPath>
    <clipPath id="clippath-18">
      <rect class="st33" x="92.8" y="94.01" width="384" height="384" transform="translate(-46.32 516.82) rotate(-80)"/>
    </clipPath>
    <clipPath id="clippath-19">
      <rect class="st33" x="90.26" y="46.49" width="384" height="384"/>
    </clipPath>
    <radialGradient id="Gradient_bez_nazwy_21" data-name="Gradient bez nazwy 2" cx="139.15" cy="372.01" fx="139.15" fy="372.01" gradientTransform="translate(-168.47 1028.87) scale(2.3 -2.3)" xlink:href="#Gradient_bez_nazwy_2"/>
    <radialGradient id="Gradient_bez_nazwy_22" data-name="Gradient bez nazwy 2" cx="169.9" cy="312.11" fx="169.9" fy="312.11" r="74.35" gradientTransform="translate(-45.62 787.98) scale(1.92 -1.92)" xlink:href="#Gradient_bez_nazwy_2"/>
    <clipPath id="clippath-20">
      <rect class="st33" x="88" y="46.49" width="384" height="384"/>
    </clipPath>
    <clipPath id="clippath-21">
      <rect class="st33" x="88" y="46.49" width="384" height="384"/>
    </clipPath>
  </defs>
  <g id="Warstwa_1" class="st42">
    <ellipse class="st33" cx="253.9" cy="257.67" rx="240.51" ry="239.51"/>
    <g class="st64">
      <g>
        <g>
          <path class="st22" d="M252.3,84.07c95.91,0,173.79,77.55,173.79,173.06s-77.87,173.06-173.79,173.06-173.79-77.55-173.79-173.06S156.38,84.07,252.3,84.07Z"/>
          <path class="st13" d="M252.3,84.07c95.91,0,173.79,77.55,173.79,173.06s-77.87,173.06-173.79,173.06-173.79-77.55-173.79-173.06S156.38,84.07,252.3,84.07Z"/>
        </g>
        <g class="st40">
          <g class="st41">
            <g class="st53">
              <g>
                <path class="st18" d="M210.93,465.88l-6.14,34.7c-.84,4.76-2.1,8.52-2.8,8.39h0c-.71-.12-.59-4.09.25-8.84l6.14-34.7c.84-4.76,2.1-8.52,2.8-8.39h0c.71.12.59,4.09-.25,8.84Z"/>
                <path class="st29" d="M210.93,465.88l-6.14,34.7c-.84,4.76-2.1,8.52-2.8,8.39h0c-.71-.12-.59-4.09.25-8.84l6.14-34.7c.84-4.76,2.1-8.52,2.8-8.39h0c.71.12.59,4.09-.25,8.84Z"/>
              </g>
            </g>
            <g class="st53">
              <g>
                <path class="st18" d="M240.36,406.4l-6.14,34.7c-.84,4.76-2.1,8.52-2.8,8.39h0c-.71-.12-.59-4.09.25-8.84l6.14-34.7c.84-4.76,2.1-8.52,2.8-8.39h0c.71.12.59,4.09-.25,8.84Z"/>
                <path class="st29" d="M240.36,406.4l-6.14,34.7c-.84,4.76-2.1,8.52-2.8,8.39h0c-.71-.12-.59-4.09.25-8.84l6.14-34.7c.84-4.76,2.1-8.52,2.8-8.39h0c.71.12.59,4.09-.25,8.84Z"/>
              </g>
            </g>
            <g class="st53">
              <g>
                <path class="st18" d="M246.95,433.29l-6.14,34.7c-.84,4.76-2.1,8.52-2.8,8.39h0c-.71-.12-.59-4.09.25-8.84l6.14-34.7c.84-4.76,2.1-8.52,2.8-8.39h0c.71.12.59,4.09-.25,8.84Z"/>
                <path class="st29" d="M246.95,433.29l-6.14,34.7c-.84,4.76-2.1,8.52-2.8,8.39h0c-.71-.12-.59-4.09.25-8.84l6.14-34.7c.84-4.76,2.1-8.52,2.8-8.39h0c.71.12.59,4.09-.25,8.84Z"/>
              </g>
            </g>
            <g class="st53">
              <g>
                <path class="st18" d="M228.34,381.74l-3.42,19.31c-.47,2.65-1.42,4.69-2.13,4.57h0c-.71-.12-.9-2.37-.43-5.02l3.42-19.31c.47-2.65,1.42-4.69,2.13-4.57h0c.71.12.9,2.37.43,5.02Z"/>
                <path class="st29" d="M228.34,381.74l-3.42,19.31c-.47,2.65-1.42,4.69-2.13,4.57h0c-.71-.12-.9-2.37-.43-5.02l3.42-19.31c.47-2.65,1.42-4.69,2.13-4.57h0c.71.12.9,2.37.43,5.02Z"/>
              </g>
            </g>
            <g class="st53">
              <g>
                <path class="st18" d="M208.17,424.49l-3.42,19.31c-.47,2.65-1.42,4.69-2.13,4.57h0c-.71-.12-.9-2.37-.43-5.02l3.42-19.31c.47-2.65,1.42-4.69,2.13-4.57h0c.71.12.9,2.37.43,5.02Z"/>
                <path class="st29" d="M208.17,424.49l-3.42,19.31c-.47,2.65-1.42,4.69-2.13,4.57h0c-.71-.12-.9-2.37-.43-5.02l3.42-19.31c.47-2.65,1.42-4.69,2.13-4.57h0c.71.12.9,2.37.43,5.02Z"/>
              </g>
            </g>
            <g class="st53">
              <g>
                <path class="st18" d="M228.35,492.05l-3.42,19.31c-.47,2.65-1.42,4.69-2.13,4.57h0c-.71-.12-.9-2.37-.43-5.02l3.42-19.31c.47-2.65,1.42-4.69,2.13-4.57h0c.71.12.9,2.37.43,5.02Z"/>
                <path class="st29" d="M228.35,492.05l-3.42,19.31c-.47,2.65-1.42,4.69-2.13,4.57h0c-.71-.12-.9-2.37-.43-5.02l3.42-19.31c.47-2.65,1.42-4.69,2.13-4.57h0c.71.12.9,2.37.43,5.02Z"/>
              </g>
            </g>
          </g>
        </g>
        <g class="st60">
          <g class="st43">
            <g class="st58">
              <g>
                <path class="st18" d="M271.47,367.3l-6.14,34.7c-.84,4.76-2.1,8.52-2.8,8.39h0c-.71-.12-.59-4.09.25-8.84l6.14-34.7c.84-4.76,2.1-8.52,2.8-8.39h0c.71.12.59,4.09-.25,8.84Z"/>
                <path class="st29" d="M271.47,367.3l-6.14,34.7c-.84,4.76-2.1,8.52-2.8,8.39h0c-.71-.12-.59-4.09.25-8.84l6.14-34.7c.84-4.76,2.1-8.52,2.8-8.39h0c.71.12.59,4.09-.25,8.84Z"/>
              </g>
            </g>
            <g class="st58">
              <g>
                <path class="st18" d="M300.91,307.83l-6.14,34.7c-.84,4.76-2.1,8.52-2.8,8.39h0c-.71-.12-.59-4.09.25-8.84l6.14-34.7c.84-4.76,2.1-8.52,2.8-8.39h0c.71.12.59,4.09-.25,8.84Z"/>
                <path class="st29" d="M300.91,307.83l-6.14,34.7c-.84,4.76-2.1,8.52-2.8,8.39h0c-.71-.12-.59-4.09.25-8.84l6.14-34.7c.84-4.76,2.1-8.52,2.8-8.39h0c.71.12.59,4.09-.25,8.84Z"/>
              </g>
            </g>
            <g class="st58">
              <g>
                <path class="st18" d="M307.49,334.72l-6.14,34.7c-.84,4.76-2.1,8.52-2.8,8.39h0c-.71-.12-.59-4.09.25-8.84l6.14-34.7c.84-4.76,2.1-8.52,2.8-8.39h0c.71.12.59,4.09-.25,8.84Z"/>
                <path class="st29" d="M307.49,334.72l-6.14,34.7c-.84,4.76-2.1,8.52-2.8,8.39h0c-.71-.12-.59-4.09.25-8.84l6.14-34.7c.84-4.76,2.1-8.52,2.8-8.39h0c.71.12.59,4.09-.25,8.84Z"/>
              </g>
            </g>
            <g class="st58">
              <g>
                <path class="st18" d="M288.89,283.16l-3.42,19.31c-.47,2.65-1.42,4.69-2.13,4.57h0c-.71-.12-.9-2.37-.43-5.02l3.42-19.31c.47-2.65,1.42-4.69,2.13-4.57h0c.71.12.9,2.37.43,5.02Z"/>
                <path class="st29" d="M288.89,283.16l-3.42,19.31c-.47,2.65-1.42,4.69-2.13,4.57h0c-.71-.12-.9-2.37-.43-5.02l3.42-19.31c.47-2.65,1.42-4.69,2.13-4.57h0c.71.12.9,2.37.43,5.02Z"/>
              </g>
            </g>
            <g class="st58">
              <g>
                <path class="st18" d="M268.71,325.91l-3.42,19.31c-.47,2.65-1.42,4.69-2.13,4.57h0c-.71-.12-.9-2.37-.43-5.02l3.42-19.31c.47-2.65,1.42-4.69,2.13-4.57h0c.71.12.9,2.37.43,5.02Z"/>
                <path class="st29" d="M268.71,325.91l-3.42,19.31c-.47,2.65-1.42,4.69-2.13,4.57h0c-.71-.12-.9-2.37-.43-5.02l3.42-19.31c.47-2.65,1.42-4.69,2.13-4.57h0c.71.12.9,2.37.43,5.02Z"/>
              </g>
            </g>
            <g class="st58">
              <g>
                <path class="st18" d="M288.89,393.47l-3.42,19.31c-.47,2.65-1.42,4.69-2.13,4.57h0c-.71-.12-.9-2.37-.43-5.02l3.42-19.31c.47-2.65,1.42-4.69,2.13-4.57h0c.71.12.9,2.37.43,5.02Z"/>
                <path class="st29" d="M288.89,393.47l-3.42,19.31c-.47,2.65-1.42,4.69-2.13,4.57h0c-.71-.12-.9-2.37-.43-5.02l3.42-19.31c.47-2.65,1.42-4.69,2.13-4.57h0c.71.12.9,2.37.43,5.02Z"/>
              </g>
            </g>
          </g>
        </g>
        <g class="st51">
          <g class="st41">
            <g class="st20">
              <g>
                <path class="st18" d="M310.16,429.23l-6.14,34.7c-.84,4.76-2.1,8.52-2.8,8.39h0c-.71-.12-.59-4.09.25-8.84l6.14-34.7c.84-4.76,2.1-8.52,2.8-8.39h0c.71.12.59,4.09-.25,8.84Z"/>
                <path class="st29" d="M310.16,429.23l-6.14,34.7c-.84,4.76-2.1,8.52-2.8,8.39h0c-.71-.12-.59-4.09.25-8.84l6.14-34.7c.84-4.76,2.1-8.52,2.8-8.39h0c.71.12.59,4.09-.25,8.84Z"/>
              </g>
            </g>
            <g class="st20">
              <g>
                <path class="st18" d="M339.59,369.75l-6.14,34.7c-.84,4.76-2.1,8.52-2.8,8.39h0c-.71-.12-.59-4.09.25-8.84l6.14-34.7c.84-4.76,2.1-8.52,2.8-8.39h0c.71.12.59,4.09-.25,8.84Z"/>
                <path class="st29" d="M339.59,369.75l-6.14,34.7c-.84,4.76-2.1,8.52-2.8,8.39h0c-.71-.12-.59-4.09.25-8.84l6.14-34.7c.84-4.76,2.1-8.52,2.8-8.39h0c.71.12.59,4.09-.25,8.84Z"/>
              </g>
            </g>
            <g class="st20">
              <g>
                <path class="st18" d="M346.18,396.64l-6.14,34.7c-.84,4.76-2.1,8.52-2.8,8.39h0c-.71-.12-.59-4.09.25-8.84l6.14-34.7c.84-4.76,2.1-8.52,2.8-8.39h0c.71.12.59,4.09-.25,8.84Z"/>
                <path class="st29" d="M346.18,396.64l-6.14,34.7c-.84,4.76-2.1,8.52-2.8,8.39h0c-.71-.12-.59-4.09.25-8.84l6.14-34.7c.84-4.76,2.1-8.52,2.8-8.39h0c.71.12.59,4.09-.25,8.84Z"/>
              </g>
            </g>
            <g class="st20">
              <g>
                <path class="st18" d="M327.58,345.09l-3.42,19.31c-.47,2.65-1.42,4.69-2.13,4.57h0c-.71-.12-.9-2.37-.43-5.02l3.42-19.31c.47-2.65,1.42-4.69,2.13-4.57h0c.71.12.9,2.37.43,5.02Z"/>
                <path class="st29" d="M327.58,345.09l-3.42,19.31c-.47,2.65-1.42,4.69-2.13,4.57h0c-.71-.12-.9-2.37-.43-5.02l3.42-19.31c.47-2.65,1.42-4.69,2.13-4.57h0c.71.12.9,2.37.43,5.02Z"/>
              </g>
            </g>
            <g class="st20">
              <g>
                <path class="st18" d="M307.4,387.83l-3.42,19.31c-.47,2.65-1.42,4.69-2.13,4.57h0c-.71-.12-.9-2.37-.43-5.02l3.42-19.31c.47-2.65,1.42-4.69,2.13-4.57h0c.71.12.9,2.37.43,5.02Z"/>
                <path class="st29" d="M307.4,387.83l-3.42,19.31c-.47,2.65-1.42,4.69-2.13,4.57h0c-.71-.12-.9-2.37-.43-5.02l3.42-19.31c.47-2.65,1.42-4.69,2.13-4.57h0c.71.12.9,2.37.43,5.02Z"/>
              </g>
            </g>
            <g class="st20">
              <g>
                <path class="st18" d="M327.58,455.39l-3.42,19.31c-.47,2.65-1.42,4.69-2.13,4.57h0c-.71-.12-.9-2.37-.43-5.02l3.42-19.31c.47-2.65,1.42-4.69,2.13-4.57h0c.71.12.9,2.37.43,5.02Z"/>
                <path class="st29" d="M327.58,455.39l-3.42,19.31c-.47,2.65-1.42,4.69-2.13,4.57h0c-.71-.12-.9-2.37-.43-5.02l3.42-19.31c.47-2.65,1.42-4.69,2.13-4.57h0c.71.12.9,2.37.43,5.02Z"/>
              </g>
            </g>
          </g>
        </g>
        <g class="st17">
          <g class="st43">
            <g class="st57">
              <g>
                <path class="st18" d="M104.21,332.51l-6.14,34.7c-.84,4.76-2.1,8.52-2.8,8.39h0c-.71-.12-.59-4.09.25-8.84l6.14-34.7c.84-4.76,2.1-8.52,2.8-8.39h0c.71.12.59,4.09-.25,8.84Z"/>
                <path class="st29" d="M104.21,332.51l-6.14,34.7c-.84,4.76-2.1,8.52-2.8,8.39h0c-.71-.12-.59-4.09.25-8.84l6.14-34.7c.84-4.76,2.1-8.52,2.8-8.39h0c.71.12.59,4.09-.25,8.84Z"/>
              </g>
            </g>
            <g class="st57">
              <g>
                <path class="st18" d="M133.65,273.04l-6.14,34.7c-.84,4.76-2.1,8.52-2.8,8.39h0c-.71-.12-.59-4.09.25-8.84l6.14-34.7c.84-4.76,2.1-8.52,2.8-8.39h0c.71.12.59,4.09-.25,8.84Z"/>
                <path class="st29" d="M133.65,273.04l-6.14,34.7c-.84,4.76-2.1,8.52-2.8,8.39h0c-.71-.12-.59-4.09.25-8.84l6.14-34.7c.84-4.76,2.1-8.52,2.8-8.39h0c.71.12.59,4.09-.25,8.84Z"/>
              </g>
            </g>
            <g class="st57">
              <g>
                <path class="st18" d="M140.24,299.93l-6.14,34.7c-.84,4.76-2.1,8.52-2.8,8.39h0c-.71-.12-.59-4.09.25-8.84l6.14-34.7c.84-4.76,2.1-8.52,2.8-8.39h0c.71.12.59,4.09-.25,8.84Z"/>
                <path class="st29" d="M140.24,299.93l-6.14,34.7c-.84,4.76-2.1,8.52-2.8,8.39h0c-.71-.12-.59-4.09.25-8.84l6.14-34.7c.84-4.76,2.1-8.52,2.8-8.39h0c.71.12.59,4.09-.25,8.84Z"/>
              </g>
            </g>
            <g class="st57">
              <g>
                <path class="st18" d="M121.63,248.38l-3.42,19.31c-.47,2.65-1.42,4.69-2.13,4.57h0c-.71-.12-.9-2.37-.43-5.02l3.42-19.31c.47-2.65,1.42-4.69,2.13-4.57h0c.71.12.9,2.37.43,5.02Z"/>
                <path class="st29" d="M121.63,248.38l-3.42,19.31c-.47,2.65-1.42,4.69-2.13,4.57h0c-.71-.12-.9-2.37-.43-5.02l3.42-19.31c.47-2.65,1.42-4.69,2.13-4.57h0c.71.12.9,2.37.43,5.02Z"/>
              </g>
            </g>
            <g class="st57">
              <g>
                <path class="st18" d="M101.46,291.12l-3.42,19.31c-.47,2.65-1.42,4.69-2.13,4.57h0c-.71-.12-.9-2.37-.43-5.02l3.42-19.31c.47-2.65,1.42-4.69,2.13-4.57h0c.71.12.9,2.37.43,5.02Z"/>
                <path class="st29" d="M101.46,291.12l-3.42,19.31c-.47,2.65-1.42,4.69-2.13,4.57h0c-.71-.12-.9-2.37-.43-5.02l3.42-19.31c.47-2.65,1.42-4.69,2.13-4.57h0c.71.12.9,2.37.43,5.02Z"/>
              </g>
            </g>
            <g class="st57">
              <g>
                <path class="st18" d="M121.64,358.68l-3.42,19.31c-.47,2.65-1.42,4.69-2.13,4.57h0c-.71-.12-.9-2.37-.43-5.02l3.42-19.31c.47-2.65,1.42-4.69,2.13-4.57h0c.71.12.9,2.37.43,5.02Z"/>
                <path class="st29" d="M121.64,358.68l-3.42,19.31c-.47,2.65-1.42,4.69-2.13,4.57h0c-.71-.12-.9-2.37-.43-5.02l3.42-19.31c.47-2.65,1.42-4.69,2.13-4.57h0c.71.12.9,2.37.43,5.02Z"/>
              </g>
            </g>
          </g>
        </g>
        <g class="st47">
          <g class="st43">
            <g>
              <path class="st18" d="M128.06,239.09l-6.14,34.7c-.84,4.76-2.1,8.52-2.8,8.39h0c-.71-.12-.59-4.09.25-8.84l6.14-34.7c.84-4.76,2.1-8.52,2.8-8.39h0c.71.12.59,4.09-.25,8.84Z"/>
              <path class="st29" d="M128.06,239.09l-6.14,34.7c-.84,4.76-2.1,8.52-2.8,8.39h0c-.71-.12-.59-4.09.25-8.84l6.14-34.7c.84-4.76,2.1-8.52,2.8-8.39h0c.71.12.59,4.09-.25,8.84Z"/>
            </g>
            <g>
              <path class="st18" d="M157.5,179.62l-6.14,34.7c-.84,4.76-2.1,8.52-2.8,8.39h0c-.71-.12-.59-4.09.25-8.84l6.14-34.7c.84-4.76,2.1-8.52,2.8-8.39h0c.71.12.59,4.09-.25,8.84Z"/>
              <path class="st29" d="M157.5,179.62l-6.14,34.7c-.84,4.76-2.1,8.52-2.8,8.39h0c-.71-.12-.59-4.09.25-8.84l6.14-34.7c.84-4.76,2.1-8.52,2.8-8.39h0c.71.12.59,4.09-.25,8.84Z"/>
            </g>
            <g>
              <path class="st18" d="M164.08,206.5l-6.14,34.7c-.84,4.76-2.1,8.52-2.8,8.39h0c-.71-.12-.59-4.09.25-8.84l6.14-34.7c.84-4.76,2.1-8.52,2.8-8.39h0c.71.12.59,4.09-.25,8.84Z"/>
              <path class="st29" d="M164.08,206.5l-6.14,34.7c-.84,4.76-2.1,8.52-2.8,8.39h0c-.71-.12-.59-4.09.25-8.84l6.14-34.7c.84-4.76,2.1-8.52,2.8-8.39h0c.71.12.59,4.09-.25,8.84Z"/>
            </g>
            <g>
              <path class="st18" d="M145.48,154.95l-3.42,19.31c-.47,2.65-1.42,4.69-2.13,4.57h0c-.71-.12-.9-2.37-.43-5.02l3.42-19.31c.47-2.65,1.42-4.69,2.13-4.57h0c.71.12.9,2.37.43,5.02Z"/>
              <path class="st29" d="M145.48,154.95l-3.42,19.31c-.47,2.65-1.42,4.69-2.13,4.57h0c-.71-.12-.9-2.37-.43-5.02l3.42-19.31c.47-2.65,1.42-4.69,2.13-4.57h0c.71.12.9,2.37.43,5.02Z"/>
            </g>
            <g>
              <path class="st18" d="M125.3,197.7l-3.42,19.31c-.47,2.65-1.42,4.69-2.13,4.57h0c-.71-.12-.9-2.37-.43-5.02l3.42-19.31c.47-2.65,1.42-4.69,2.13-4.57h0c.71.12.9,2.37.43,5.02Z"/>
              <path class="st29" d="M125.3,197.7l-3.42,19.31c-.47,2.65-1.42,4.69-2.13,4.57h0c-.71-.12-.9-2.37-.43-5.02l3.42-19.31c.47-2.65,1.42-4.69,2.13-4.57h0c.71.12.9,2.37.43,5.02Z"/>
            </g>
            <g>
              <path class="st18" d="M145.48,265.26l-3.42,19.31c-.47,2.65-1.42,4.69-2.13,4.57h0c-.71-.12-.9-2.37-.43-5.02l3.42-19.31c.47-2.65,1.42-4.69,2.13-4.57h0c.71.12.9,2.37.43,5.02Z"/>
              <path class="st29" d="M145.48,265.26l-3.42,19.31c-.47,2.65-1.42,4.69-2.13,4.57h0c-.71-.12-.9-2.37-.43-5.02l3.42-19.31c.47-2.65,1.42-4.69,2.13-4.57h0c.71.12.9,2.37.43,5.02Z"/>
            </g>
          </g>
        </g>
        <g class="st1">
          <g class="st43">
            <g>
              <path class="st18" d="M156.15,413.74l-6.14,34.7c-.84,4.76-2.1,8.52-2.8,8.39h0c-.71-.12-.59-4.09.25-8.84l6.14-34.7c.84-4.76,2.1-8.52,2.8-8.39h0c.71.12.59,4.09-.25,8.84Z"/>
              <path class="st29" d="M156.15,413.74l-6.14,34.7c-.84,4.76-2.1,8.52-2.8,8.39h0c-.71-.12-.59-4.09.25-8.84l6.14-34.7c.84-4.76,2.1-8.52,2.8-8.39h0c.71.12.59,4.09-.25,8.84Z"/>
            </g>
            <g>
              <path class="st18" d="M185.59,354.26l-6.14,34.7c-.84,4.76-2.1,8.52-2.8,8.39h0c-.71-.12-.59-4.09.25-8.84l6.14-34.7c.84-4.76,2.1-8.52,2.8-8.39h0c.71.12.59,4.09-.25,8.84Z"/>
              <path class="st29" d="M185.59,354.26l-6.14,34.7c-.84,4.76-2.1,8.52-2.8,8.39h0c-.71-.12-.59-4.09.25-8.84l6.14-34.7c.84-4.76,2.1-8.52,2.8-8.39h0c.71.12.59,4.09-.25,8.84Z"/>
            </g>
            <g>
              <path class="st18" d="M192.17,381.15l-6.14,34.7c-.84,4.76-2.1,8.52-2.8,8.39h0c-.71-.12-.59-4.09.25-8.84l6.14-34.7c.84-4.76,2.1-8.52,2.8-8.39h0c.71.12.59,4.09-.25,8.84Z"/>
              <path class="st29" d="M192.17,381.15l-6.14,34.7c-.84,4.76-2.1,8.52-2.8,8.39h0c-.71-.12-.59-4.09.25-8.84l6.14-34.7c.84-4.76,2.1-8.52,2.8-8.39h0c.71.12.59,4.09-.25,8.84Z"/>
            </g>
            <g>
              <path class="st18" d="M173.57,329.6l-3.42,19.31c-.47,2.65-1.42,4.69-2.13,4.57h0c-.71-.12-.9-2.37-.43-5.02l3.42-19.31c.47-2.65,1.42-4.69,2.13-4.57h0c.71.12.9,2.37.43,5.02Z"/>
              <path class="st29" d="M173.57,329.6l-3.42,19.31c-.47,2.65-1.42,4.69-2.13,4.57h0c-.71-.12-.9-2.37-.43-5.02l3.42-19.31c.47-2.65,1.42-4.69,2.13-4.57h0c.71.12.9,2.37.43,5.02Z"/>
            </g>
            <g>
              <path class="st18" d="M153.4,372.34l-3.42,19.31c-.47,2.65-1.42,4.69-2.13,4.57h0c-.71-.12-.9-2.37-.43-5.02l3.42-19.31c.47-2.65,1.42-4.69,2.13-4.57h0c.71.12.9,2.37.43,5.02Z"/>
              <path class="st29" d="M153.4,372.34l-3.42,19.31c-.47,2.65-1.42,4.69-2.13,4.57h0c-.71-.12-.9-2.37-.43-5.02l3.42-19.31c.47-2.65,1.42-4.69,2.13-4.57h0c.71.12.9,2.37.43,5.02Z"/>
            </g>
            <g>
              <path class="st18" d="M173.58,439.9l-3.42,19.31c-.47,2.65-1.42,4.69-2.13,4.57h0c-.71-.12-.9-2.37-.43-5.02l3.42-19.31c.47-2.65,1.42-4.69,2.13-4.57h0c.71.12.9,2.37.43,5.02Z"/>
              <path class="st29" d="M173.58,439.9l-3.42,19.31c-.47,2.65-1.42,4.69-2.13,4.57h0c-.71-.12-.9-2.37-.43-5.02l3.42-19.31c.47-2.65,1.42-4.69,2.13-4.57h0c.71.12.9,2.37.43,5.02Z"/>
            </g>
          </g>
        </g>
        <g class="st2">
          <g class="st43">
            <g>
              <path class="st18" d="M227.36,254.91l-6.14,34.7c-.84,4.76-2.1,8.52-2.8,8.39h0c-.71-.12-.59-4.09.25-8.84l6.14-34.7c.84-4.76,2.1-8.52,2.8-8.39h0c.71.12.59,4.09-.25,8.84Z"/>
              <path class="st29" d="M227.36,254.91l-6.14,34.7c-.84,4.76-2.1,8.52-2.8,8.39h0c-.71-.12-.59-4.09.25-8.84l6.14-34.7c.84-4.76,2.1-8.52,2.8-8.39h0c.71.12.59,4.09-.25,8.84Z"/>
            </g>
            <g>
              <path class="st18" d="M256.8,195.44l-6.14,34.7c-.84,4.76-2.1,8.52-2.8,8.39h0c-.71-.12-.59-4.09.25-8.84l6.14-34.7c.84-4.76,2.1-8.52,2.8-8.39h0c.71.12.59,4.09-.25,8.84Z"/>
              <path class="st29" d="M256.8,195.44l-6.14,34.7c-.84,4.76-2.1,8.52-2.8,8.39h0c-.71-.12-.59-4.09.25-8.84l6.14-34.7c.84-4.76,2.1-8.52,2.8-8.39h0c.71.12.59,4.09-.25,8.84Z"/>
            </g>
            <g>
              <path class="st18" d="M263.38,222.33l-6.14,34.7c-.84,4.76-2.1,8.52-2.8,8.39h0c-.71-.12-.59-4.09.25-8.84l6.14-34.7c.84-4.76,2.1-8.52,2.8-8.39h0c.71.12.59,4.09-.25,8.84Z"/>
              <path class="st29" d="M263.38,222.33l-6.14,34.7c-.84,4.76-2.1,8.52-2.8,8.39h0c-.71-.12-.59-4.09.25-8.84l6.14-34.7c.84-4.76,2.1-8.52,2.8-8.39h0c.71.12.59,4.09-.25,8.84Z"/>
            </g>
            <g>
              <path class="st18" d="M244.78,170.77l-3.42,19.31c-.47,2.65-1.42,4.69-2.13,4.57h0c-.71-.12-.9-2.37-.43-5.02l3.42-19.31c.47-2.65,1.42-4.69,2.13-4.57h0c.71.12.9,2.37.43,5.02Z"/>
              <path class="st29" d="M244.78,170.77l-3.42,19.31c-.47,2.65-1.42,4.69-2.13,4.57h0c-.71-.12-.9-2.37-.43-5.02l3.42-19.31c.47-2.65,1.42-4.69,2.13-4.57h0c.71.12.9,2.37.43,5.02Z"/>
            </g>
            <g>
              <path class="st18" d="M224.61,213.52l-3.42,19.31c-.47,2.65-1.42,4.69-2.13,4.57h0c-.71-.12-.9-2.37-.43-5.02l3.42-19.31c.47-2.65,1.42-4.69,2.13-4.57h0c.71.12.9,2.37.43,5.02Z"/>
              <path class="st29" d="M224.61,213.52l-3.42,19.31c-.47,2.65-1.42,4.69-2.13,4.57h0c-.71-.12-.9-2.37-.43-5.02l3.42-19.31c.47-2.65,1.42-4.69,2.13-4.57h0c.71.12.9,2.37.43,5.02Z"/>
            </g>
            <g>
              <path class="st18" d="M244.79,281.08l-3.42,19.31c-.47,2.65-1.42,4.69-2.13,4.57h0c-.71-.12-.9-2.37-.43-5.02l3.42-19.31c.47-2.65,1.42-4.69,2.13-4.57h0c.71.12.9,2.37.43,5.02Z"/>
              <path class="st29" d="M244.79,281.08l-3.42,19.31c-.47,2.65-1.42,4.69-2.13,4.57h0c-.71-.12-.9-2.37-.43-5.02l3.42-19.31c.47-2.65,1.42-4.69,2.13-4.57h0c.71.12.9,2.37.43,5.02Z"/>
            </g>
          </g>
        </g>
        <path class="st45" d="M229.95,29.68c64.4,0,116.69,52.07,116.69,116.2s-52.29,116.2-116.69,116.2-116.69-52.07-116.69-116.2S165.55,29.68,229.95,29.68Z"/>
        <g class="st23">
          <path class="st46" d="M116.89,83.71c36.71,0,66.51,29.68,66.51,66.24s-29.81,66.24-66.51,66.24-66.51-29.68-66.51-66.24,29.81-66.24,66.51-66.24Z"/>
        </g>
        <g class="st34">
          <path class="st46" d="M253.54,67.38c104.13,0,188.68,84.2,188.68,187.9s-84.55,187.9-188.68,187.9-188.68-84.2-188.68-187.9S149.4,67.38,253.54,67.38Z"/>
        </g>
        <g>
          <g>
            <path class="st36" d="M253,49.97c44.92,0,81.39,36.32,81.39,81.05s-36.47,81.05-81.39,81.05-81.39-36.32-81.39-81.05,36.47-81.05,81.39-81.05Z"/>
            <path class="st29" d="M253,49.97c44.92,0,81.39,36.32,81.39,81.05s-36.47,81.05-81.39,81.05-81.39-36.32-81.39-81.05,36.47-81.05,81.39-81.05Z"/>
          </g>
          <g>
            <path class="st39" d="M252.3,61.33c38.37,0,69.51,31.02,69.51,69.22s-31.15,69.22-69.51,69.22-69.51-31.02-69.51-69.22,31.15-69.22,69.51-69.22Z"/>
            <path class="st6" d="M252.3,61.33c38.37,0,69.51,31.02,69.51,69.22s-31.15,69.22-69.51,69.22-69.51-31.02-69.51-69.22,31.15-69.22,69.51-69.22Z"/>
          </g>
        </g>
        <path class="st27" d="M218.44,46.53c-16,6.61-30.23,17.93-40.35,33.46-26.71,41.01-14.79,95.94,26.61,122.69"/>
        <g class="st49">
          <g>
            <path class="st19" d="M162.86,292.98c-3.18,7.42-13.18,14.39-13.16,23.98.02,9.82,6.78,13.4,12.81,13.4s13.13-3.46,13.11-13.23c-.02-9.67-9.96-16.66-12.76-24.15Z"/>
            <path class="st37" d="M162.97,292.98c3.2,7.49,12.41,13.89,12.39,23.56-.02,9.89-6.78,13.52-12.81,13.52s6.11-5.54,6.13-15.4c.02-9.74-5.34-14.22-5.71-21.68Z"/>
            <path class="st19" d="M123.59,286.81c-3.36,7.34-13.53,14.07-13.73,23.66-.21,9.81,6.45,13.56,12.48,13.7,6.01.14,13.21-3.15,13.42-12.91.21-9.66-9.55-16.9-12.18-24.45Z"/>
            <path class="st37" d="M123.7,286.68c3.02,7.57,12.08,14.19,11.82,23.85-.26,9.89-7.1,13.36-13.13,13.21-6.01-.14,6.24-5.39,6.5-15.25.26-9.74-4.99-14.34-5.19-21.81Z"/>
            <path class="st19" d="M152.06,237.36c-3.18,7.42-13.18,14.39-13.16,23.98.02,9.82,6.78,13.4,12.81,13.4s13.13-3.46,13.11-13.23c-.02-9.67-9.96-16.66-12.76-24.15Z"/>
            <path class="st37" d="M152.17,237.36c3.2,7.49,12.41,13.89,12.39,23.56-.02,9.89-6.78,13.52-12.81,13.52s6.11-5.54,6.13-15.4c.02-9.74-5.34-14.22-5.71-21.68Z"/>
          </g>
        </g>
        <g>
          <path class="st35" d="M164.7,77.85c19.15,0,36.51,7.91,49.07,20.72,10.93,11.19,18.22,26.12,19.86,42.74,8,2.91,14.99,7.85,20.32,14.22,6.74,8.06,10.81,18.36,10.81,29.61,0,12.69-5.17,24.19-13.51,32.53-8.1,8.03-19.15,13.12-31.4,13.43h0l-127.48.03c-12.75,0-24.29-5.15-32.66-13.46-8.34-8.34-13.51-19.83-13.51-32.53s5.17-24.19,13.51-32.53c8.1-8.03,19.15-13.12,31.4-13.43h0l4.93-.03c2-15.76,9.14-29.89,19.61-40.59,12.56-12.81,29.92-20.72,49.07-20.72Z"/>
          <path class="st29" d="M164.7,77.85c19.15,0,36.51,7.91,49.07,20.72,10.93,11.19,18.22,26.12,19.86,42.74,8,2.91,14.99,7.85,20.32,14.22,6.74,8.06,10.81,18.36,10.81,29.61,0,12.69-5.17,24.19-13.51,32.53-8.1,8.03-19.15,13.12-31.4,13.43h0l-127.48.03c-12.75,0-24.29-5.15-32.66-13.46-8.34-8.34-13.51-19.83-13.51-32.53s5.17-24.19,13.51-32.53c8.1-8.03,19.15-13.12,31.4-13.43h0l4.93-.03c2-15.76,9.14-29.89,19.61-40.59,12.56-12.81,29.92-20.72,49.07-20.72Z"/>
        </g>
        <g>
          <path class="st62" d="M165.36,86.52c16.86,0,32.15,6.97,43.2,18.28,10.55,10.74,17.25,25.4,17.85,41.65,8.25,2.14,15.46,6.79,20.74,13.11,5.69,6.76,9.09,15.43,9.09,24.86,0,10.65-4.35,20.29-11.35,27.26s-16.68,11.3-27.38,11.3h-122.15c-10.7,0-20.38-4.33-27.38-11.3-7-6.97-11.35-16.61-11.35-27.26s4.35-20.29,11.35-27.26c7-6.97,16.68-11.3,27.38-11.3h9c.74-16.02,7.42-30.44,17.82-41.06,11.05-11.3,26.34-18.28,43.2-18.28Z"/>
          <path class="st28" d="M165.36,86.52c16.86,0,32.15,6.97,43.2,18.28,10.55,10.74,17.25,25.4,17.85,41.65,8.25,2.14,15.46,6.79,20.74,13.11,5.69,6.76,9.09,15.43,9.09,24.86,0,10.65-4.35,20.29-11.35,27.26s-16.68,11.3-27.38,11.3h-122.15c-10.7,0-20.38-4.33-27.38-11.3-7-6.97-11.35-16.61-11.35-27.26s4.35-20.29,11.35-27.26c7-6.97,16.68-11.3,27.38-11.3h9c.74-16.02,7.42-30.44,17.82-41.06,11.05-11.3,26.34-18.28,43.2-18.28Z"/>
        </g>
        <g class="st31">
          <path class="st38" d="M353.02,81.6c25.37,0,48.34,10.24,64.95,26.8,16.04,15.95,26.17,37.8,26.86,61.98l.02,1.14.17.1c6.98,4.3,12.96,10.04,17.5,16.79l.67,1.04c5.69,8.83,8.99,19.33,8.99,30.61,0,15.53-6.23,29.59-16.36,39.85-9.91,10.04-23.51,16.42-38.61,16.96h0l-148.81.05c-19.34-.74-36.72-9.05-49.26-22.03-12.41-12.91-20.06-30.38-20.06-49.67s8.07-37.73,21.08-50.71c13.03-12.95,31.03-20.99,50.92-20.99h-.92l.35-.72c6.8-13.77,16.96-25.59,29.42-34.39l1.22-.84c14.75-10.09,32.62-15.97,51.86-15.97Z"/>
        </g>
        <g>
          <path class="st44" d="M353.02,89.02c23.31,0,44.42,9.42,59.68,24.62,15.27,15.2,24.73,36.22,24.73,59.43,0,.94-.02,1.85-.05,2.79,7.99,4.01,14.75,10.09,19.56,17.55,4.94,7.69,7.8,16.84,7.8,26.63,0,13.5-5.44,25.74-14.23,34.66-8.84,8.93-21.03,14.54-34.56,14.78h-147.4c-17.28-.69-32.82-8.13-44.02-19.75-11.15-11.55-18-27.24-18-44.53s7.22-33.82,18.92-45.44c11.67-11.64,27.81-18.84,45.63-18.84,1.29,0,2.58.05,3.85.1,6.31-15.2,16.96-28.16,30.41-37.36,13.58-9.25,29.99-14.66,47.67-14.66h0Z"/>
          <path class="st6" d="M353.02,89.02c23.31,0,44.42,9.42,59.68,24.62,15.27,15.2,24.73,36.22,24.73,59.43,0,.94-.02,1.85-.05,2.79,7.99,4.01,14.75,10.09,19.56,17.55,4.94,7.69,7.8,16.84,7.8,26.63,0,13.5-5.44,25.74-14.23,34.66-8.84,8.93-21.03,14.54-34.56,14.78h-147.4c-17.28-.69-32.82-8.13-44.02-19.75-11.15-11.55-18-27.24-18-44.53s7.22-33.82,18.92-45.44c11.67-11.64,27.81-18.84,45.63-18.84,1.29,0,2.58.05,3.85.1,6.31-15.2,16.96-28.16,30.41-37.36,13.58-9.25,29.99-14.66,47.67-14.66h0Z"/>
        </g>
        <g class="st25">
          <g>
            <path class="st19" d="M330.6,333.78c-3.18,7.42-13.18,14.39-13.16,23.98.02,9.82,6.78,13.4,12.81,13.4s13.13-3.46,13.11-13.23c-.02-9.67-9.96-16.66-12.76-24.15Z"/>
            <path class="st37" d="M330.71,333.78c3.2,7.49,12.41,13.89,12.39,23.56-.02,9.89-6.78,13.52-12.81,13.52s6.11-5.54,6.13-15.4c.02-9.74-5.34-14.22-5.71-21.68Z"/>
            <path class="st19" d="M290.88,333.78c-3.18,7.42-13.18,14.39-13.16,23.98.02,9.82,6.78,13.4,12.81,13.4s13.13-3.46,13.11-13.23c-.02-9.67-9.96-16.66-12.76-24.15Z"/>
            <path class="st37" d="M290.99,333.78c3.2,7.49,12.41,13.89,12.39,23.56-.02,9.89-6.78,13.52-12.81,13.52s6.11-5.54,6.13-15.4c.02-9.74-5.34-14.22-5.71-21.68Z"/>
            <path class="st19" d="M340.67,284.33c-3.18,7.42-13.18,14.39-13.16,23.98.02,9.82,6.78,13.4,12.81,13.4s13.13-3.46,13.11-13.23c-.02-9.67-9.96-16.66-12.76-24.15Z"/>
            <path class="st37" d="M340.78,284.33c3.2,7.49,12.41,13.89,12.39,23.56-.02,9.89-6.78,13.52-12.81,13.52s6.11-5.54,6.13-15.4c.02-9.74-5.34-14.22-5.71-21.68Z"/>
            <path class="st19" d="M300.94,284.33c-3.18,7.42-13.18,14.39-13.16,23.98.02,9.82,6.78,13.4,12.81,13.4s13.13-3.46,13.11-13.23c-.02-9.67-9.96-16.66-12.76-24.15Z"/>
            <path class="st37" d="M301.05,284.33c3.2,7.49,12.41,13.89,12.39,23.56-.02,9.89-6.78,13.52-12.81,13.52s6.11-5.54,6.13-15.4c.02-9.74-5.34-14.22-5.71-21.68Z"/>
          </g>
        </g>
        <g class="st63">
          <path class="st24" d="M150.61,411.05c-19.36-8.28-34.86,1.43-34.86,12.36s18.15,19.78,40.54,19.78,56.28-22,56.28-22c0,0-42.6-1.85-61.97-10.14Z"/>
        </g>
        <g class="st26">
          <g>
            <path class="st39" d="M158.42,393.11c-3.67,8.85-15.17,17.13-15.14,28.53.02,11.69,7.8,15.97,14.72,15.97s15.09-4.13,15.07-15.75c-.02-11.52-11.45-19.83-14.65-28.75Z"/>
            <path class="st39" d="M157.93,385.69c3.67-8.85,15.17-17.13,15.14-28.53-.02-11.69-7.8-15.97-14.72-15.97s-15.09,4.13-15.07,15.75c.02,11.52,11.45,19.83,14.65,28.75Z"/>
            <path class="st39" d="M156.55,388.13c-5.86-7.59-7.32-21.65-17.24-27.33-10.18-5.83-17.79-1.26-21.25,4.71-3.46,5.97-3.96,15.08,6.16,20.87,10.03,5.74,22.97.04,32.33,1.74Z"/>
            <path class="st39" d="M161.28,389.85c5.86-7.59,7.32-21.65,17.24-27.33,10.18-5.83,17.79-1.26,21.25,4.71,3.46,5.97,3.96,15.08-6.16,20.87-10.03,5.74-22.97.04-32.33,1.74Z"/>
            <path class="st39" d="M156.79,391.1c-9.53,1.26-22.48-4.52-32.38,1.2-10.16,5.87-9.99,14.71-6.53,20.68,3.46,5.97,11.14,10.95,21.23,5.12,10.01-5.78,11.52-19.78,17.68-27.01Z"/>
            <path class="st39" d="M161.03,392.82c9.53,1.26,22.48-4.52,32.38,1.2,10.16,5.87,9.99,14.71,6.53,20.68-3.46,5.97-11.14,10.95-21.23,5.12-10.01-5.78-11.52-19.78-17.68-27.01Z"/>
            <path class="st21" d="M160.44,370.86c10.28,0,18.62,8.31,18.62,18.54s-8.34,18.54-18.62,18.54-18.62-8.31-18.62-18.54,8.34-18.54,18.62-18.54Z"/>
          </g>
        </g>
      </g>
    </g>
    <g>
      <path class="st9" d="M114.02,186.97c0,7.43-1.83,13.38-5.48,17.84-3.65,4.46-8.49,6.69-14.53,6.69l-.36,11.97h-16.62l-.87-29.24c-.26-7.54-.67-17.88-1.24-31.04,3.14-.81,7.73-1.22,13.79-1.22,7.38,0,13.3,1.92,17.74,5.77,5.05,4.37,7.57,10.78,7.57,19.23ZM101.5,193.56c0-4.08-1.86-6.12-5.58-6.12-.44,0-.89.04-1.36.12l-.3,13.73c4.83-.21,7.24-2.78,7.24-7.73Z"/>
      <path class="st4" d="M156.47,192.03c0,9.24-1.83,17.04-5.49,23.43-3.84,6.67-8.76,10.01-14.75,10.01s-11.17-3.36-15-10.09c-3.6-6.33-5.4-14.11-5.4-23.35,0-9.86,1.96-17.61,5.88-23.23,3.7-5.29,8.54-7.93,14.51-7.93s10.66,2.65,14.36,7.97c3.92,5.65,5.88,13.38,5.88,23.19ZM141.96,198.94c0-7.27-1.89-10.91-5.67-10.91s-5.52,3.66-5.52,10.99c0,2.93.48,5.66,1.45,8.2,1.09,2.85,2.42,4.28,4.01,4.28s2.92-1.45,4.1-4.36c1.09-2.64,1.63-5.37,1.63-8.2Z"/>
      <path class="st5" d="M199.1,197.68c-.2,2.22-.5,6.42-.91,12.6-.2,3.69-.39,8.06-.57,13.11-2.7,1.02-6.63,1.53-11.8,1.53-7.68,0-13.93-2.25-18.74-6.75-5.67-5.36-8.51-13.34-8.51-23.94s2.48-18.08,7.45-23.78c4.67-5.36,10.81-8.04,18.43-8.04,2.88,0,5.96.29,9.26.86l1.66,24.76c-1.33-.65-3.22-.98-5.67-.98-3.12,0-5.93,1.24-8.45,3.73-2.82,2.8-4.22,6.36-4.22,10.67,0,4.08,1.2,7.23,3.59,9.46,2.01,1.88,4.33,2.77,6.97,2.67l-.48-7.89c-.12-1.62-.39-4.29-.81-8.01h12.79Z"/>
      <path class="st14" d="M241.13,192.03c0,9.24-1.83,17.04-5.49,23.43-3.84,6.67-8.76,10.01-14.75,10.01s-11.17-3.36-15-10.09c-3.6-6.33-5.4-14.11-5.4-23.35,0-9.86,1.96-17.61,5.88-23.23,3.7-5.29,8.54-7.93,14.51-7.93s10.66,2.65,14.36,7.97c3.92,5.65,5.88,13.38,5.88,23.19ZM226.62,198.94c0-7.27-1.89-10.91-5.67-10.91s-5.52,3.66-5.52,10.99c0,2.93.48,5.66,1.45,8.2,1.09,2.85,2.42,4.28,4.01,4.28s2.92-1.45,4.1-4.36c1.09-2.64,1.63-5.37,1.63-8.2Z"/>
      <path class="st10" d="M284.64,193.79c0,9.45-2.25,16.87-6.76,22.29-4.65,5.62-11.19,8.44-19.64,8.44-5.43,0-9.62-.35-12.58-1.06l-.81-29.16c-.26-7.48-.74-17.8-1.42-30.96,4.36-.81,8.92-1.22,13.67-1.22,8.47,0,15.09,2.56,19.88,7.69,5.11,5.49,7.66,13.49,7.66,23.97ZM272.27,198.62c0-3.85-.95-6.68-2.87-8.52-1.59-1.52-3.62-2.21-6.09-2.08l-.42,24.6c2.57-.21,4.68-1.29,6.31-3.26,2.05-2.43,3.08-6.02,3.08-10.75Z"/>
      <path class="st11" d="M328.69,163.19l-5.67,13.66c-1.53,3.74-3.59,8.97-6.18,15.7-.24,3.66-.55,8.86-.94,15.58-.12,3.58-.32,8.7-.6,15.34h-15.45c-.08-3.24-.26-8.44-.54-15.58-.16-2.69-.53-7.81-1.12-15.34-1.05-2.8-2.8-7.34-5.25-13.62-1.59-3.82-3.9-9.07-6.94-15.74h22.27c.36,1.7.99,4.38,1.9,8.05l2.9,10.6c.76-2.41,1.8-5.97,3.11-10.67.44-1.86,1.02-4.51,1.72-7.97h10.8Z"/>
      <path class="st12" d="M367.39,163.19c-.28,5.29-.67,14.51-1.18,27.67-.3,9.68-.55,20.81-.75,33.4-2.63-2.7-6.65-6.71-12.04-12.05-2.33-2.12-5.81-5.3-10.44-9.54l-.3,20.8h-9.72c-.16-5.31-.53-15.33-1.12-30.06-.5-11.93-1.02-22-1.54-30.22h15.15l11.22,13.81c0-3.17-.04-5.65-.12-7.46-.06-1.6-.18-3.71-.36-6.36h11.19Z"/>
      <path class="st8" d="M413.73,166.33c-1.11,2.67-3.37,8.29-6.79,16.87-1.87,4.74-4.45,11.06-7.73,18.95.28.58,1.91,3,4.89,7.26,1.75,2.43,4.23,5.53,7.45,9.3-1.35.76-3.55,1.99-6.61,3.69-1.71.99-4.11,2.45-7.21,4.36-.76-1.2-2.33-4.02-4.71-8.44-1.33-2.61-2.61-5.4-3.83-8.36h-.12l-.3,13.5h-16.68l-.81-31.35c-.22-6.85-.7-16.5-1.42-28.92h21l-1.18,26.45h.21c.85-3.08,2.2-8.17,4.07-15.27.76-3.08,1.75-7.32,2.95-12.71l8.54,2.43c2.78.79,5.53,1.53,8.27,2.24Z"/>
      <path class="st7" d="M451.87,223.46h-16.5l-1.12-5.22c-.46.23-1.62,1.03-3.47,2.39-1.19.99-2.5,2.32-3.95,3.97l-1.72-4.75c-.34-.94-.84-2.26-1.48-3.97l-1.63,7.57h-8.75c1.29-6.46,3.28-17.12,5.97-31.98,1.65-9.94,3.03-19.37,4.13-28.29h18.13c.56,4.11,2.1,13.67,4.62,28.69,1.39,7.85,3.31,18.38,5.76,31.59ZM432.83,210.59c-.34-1.39-.94-3.64-1.81-6.75-.53-1.73-1.32-4.11-2.39-7.14-.46,1.52-1.19,4-2.17,7.46-.54,1.99-1.19,4.7-1.93,8.12.6,0,1.97-.16,4.1-.47,1.29-.23,2.69-.64,4.19-1.21Z"/>
    </g>
  </g>
  <g id="Warstwa_2">
    <rect class="st32" width="512" height="512"/>
    <g class="st30">
      <g>
        <g>
          <path class="st50" d="M260.8,123.29c74.18,0,134.4,60.22,134.4,134.4s-60.22,134.4-134.4,134.4-134.4-60.22-134.4-134.4,60.22-134.4,134.4-134.4Z"/>
          <path class="st13" d="M260.8,123.29c74.18,0,134.4,60.22,134.4,134.4s-60.22,134.4-134.4,134.4-134.4-60.22-134.4-134.4,60.22-134.4,134.4-134.4Z"/>
        </g>
        <g class="st52">
          <g class="st41">
            <g class="st53">
              <g>
                <path class="st18" d="M228.8,419.8l-4.75,26.95c-.65,3.69-1.62,6.61-2.17,6.52h0c-.55-.1-.46-3.17.19-6.87l4.75-26.95c.65-3.69,1.62-6.61,2.17-6.52h0c.55.1.46,3.17-.19,6.87Z"/>
                <path class="st29" d="M228.8,419.8l-4.75,26.95c-.65,3.69-1.62,6.61-2.17,6.52h0c-.55-.1-.46-3.17.19-6.87l4.75-26.95c.65-3.69,1.62-6.61,2.17-6.52h0c.55.1.46,3.17-.19,6.87Z"/>
              </g>
            </g>
            <g class="st53">
              <g>
                <path class="st18" d="M251.57,373.62l-4.75,26.95c-.65,3.69-1.62,6.61-2.17,6.52h0c-.55-.1-.46-3.17.19-6.87l4.75-26.95c.65-3.69,1.62-6.61,2.17-6.52h0c.55.1.46,3.17-.19,6.87Z"/>
                <path class="st29" d="M251.57,373.62l-4.75,26.95c-.65,3.69-1.62,6.61-2.17,6.52h0c-.55-.1-.46-3.17.19-6.87l4.75-26.95c.65-3.69,1.62-6.61,2.17-6.52h0c.55.1.46,3.17-.19,6.87Z"/>
              </g>
            </g>
            <g class="st53">
              <g>
                <path class="st18" d="M256.66,394.5l-4.75,26.95c-.65,3.69-1.62,6.61-2.17,6.52h0c-.55-.1-.46-3.17.19-6.87l4.75-26.95c.65-3.69,1.62-6.61,2.17-6.52h0c.55.1.46,3.17-.19,6.87Z"/>
                <path class="st29" d="M256.66,394.5l-4.75,26.95c-.65,3.69-1.62,6.61-2.17,6.52h0c-.55-.1-.46-3.17.19-6.87l4.75-26.95c.65-3.69,1.62-6.61,2.17-6.52h0c.55.1.46,3.17-.19,6.87Z"/>
              </g>
            </g>
            <g class="st53">
              <g>
                <path class="st18" d="M242.28,354.46l-2.64,14.99c-.36,2.06-1.1,3.65-1.64,3.55h0c-.55-.1-.69-1.84-.33-3.9l2.64-14.99c.36-2.06,1.1-3.65,1.64-3.55h0c.55.1.69,1.84.33,3.9Z"/>
                <path class="st29" d="M242.28,354.46l-2.64,14.99c-.36,2.06-1.1,3.65-1.64,3.55h0c-.55-.1-.69-1.84-.33-3.9l2.64-14.99c.36-2.06,1.1-3.65,1.64-3.55h0c.55.1.69,1.84.33,3.9Z"/>
              </g>
            </g>
            <g class="st53">
              <g>
                <path class="st18" d="M226.67,387.66l-2.64,14.99c-.36,2.06-1.1,3.65-1.64,3.55h0c-.55-.1-.69-1.84-.33-3.9l2.64-14.99c.36-2.06,1.1-3.65,1.64-3.55h0c.55.1.69,1.84.33,3.9Z"/>
                <path class="st29" d="M226.67,387.66l-2.64,14.99c-.36,2.06-1.1,3.65-1.64,3.55h0c-.55-.1-.69-1.84-.33-3.9l2.64-14.99c.36-2.06,1.1-3.65,1.64-3.55h0c.55.1.69,1.84.33,3.9Z"/>
              </g>
            </g>
            <g class="st53">
              <g>
                <path class="st18" d="M242.28,440.13l-2.64,14.99c-.36,2.06-1.1,3.65-1.64,3.55h0c-.55-.1-.69-1.84-.33-3.9l2.64-14.99c.36-2.06,1.1-3.65,1.64-3.55h0c.55.1.69,1.84.33,3.9Z"/>
                <path class="st29" d="M242.28,440.13l-2.64,14.99c-.36,2.06-1.1,3.65-1.64,3.55h0c-.55-.1-.69-1.84-.33-3.9l2.64-14.99c.36-2.06,1.1-3.65,1.64-3.55h0c.55.1.69,1.84.33,3.9Z"/>
              </g>
            </g>
          </g>
        </g>
        <g class="st61">
          <g class="st43">
            <g class="st58">
              <g>
                <path class="st18" d="M275.63,343.25l-4.75,26.95c-.65,3.69-1.62,6.61-2.17,6.52h0c-.55-.1-.46-3.17.19-6.87l4.75-26.95c.65-3.69,1.62-6.61,2.17-6.52h0c.55.1.46,3.17-.19,6.87Z"/>
                <path class="st29" d="M275.63,343.25l-4.75,26.95c-.65,3.69-1.62,6.61-2.17,6.52h0c-.55-.1-.46-3.17.19-6.87l4.75-26.95c.65-3.69,1.62-6.61,2.17-6.52h0c.55.1.46,3.17-.19,6.87Z"/>
              </g>
            </g>
            <g class="st58">
              <g>
                <path class="st18" d="M298.39,297.06l-4.75,26.95c-.65,3.69-1.62,6.61-2.17,6.52h0c-.55-.1-.46-3.17.19-6.87l4.75-26.95c.65-3.69,1.62-6.61,2.17-6.52h0c.55.1.46,3.17-.19,6.87Z"/>
                <path class="st29" d="M298.39,297.06l-4.75,26.95c-.65,3.69-1.62,6.61-2.17,6.52h0c-.55-.1-.46-3.17.19-6.87l4.75-26.95c.65-3.69,1.62-6.61,2.17-6.52h0c.55.1.46,3.17-.19,6.87Z"/>
              </g>
            </g>
            <g class="st58">
              <g>
                <path class="st18" d="M303.48,317.94l-4.75,26.95c-.65,3.69-1.62,6.61-2.17,6.52h0c-.55-.1-.46-3.17.19-6.87l4.75-26.95c.65-3.69,1.62-6.61,2.17-6.52h0c.55.1.46,3.17-.19,6.87Z"/>
                <path class="st29" d="M303.48,317.94l-4.75,26.95c-.65,3.69-1.62,6.61-2.17,6.52h0c-.55-.1-.46-3.17.19-6.87l4.75-26.95c.65-3.69,1.62-6.61,2.17-6.52h0c.55.1.46,3.17-.19,6.87Z"/>
              </g>
            </g>
            <g class="st58">
              <g>
                <path class="st18" d="M289.1,277.91l-2.64,14.99c-.36,2.06-1.1,3.65-1.64,3.55h0c-.55-.1-.69-1.84-.33-3.9l2.64-14.99c.36-2.06,1.1-3.65,1.64-3.55h0c.55.1.69,1.84.33,3.9Z"/>
                <path class="st29" d="M289.1,277.91l-2.64,14.99c-.36,2.06-1.1,3.65-1.64,3.55h0c-.55-.1-.69-1.84-.33-3.9l2.64-14.99c.36-2.06,1.1-3.65,1.64-3.55h0c.55.1.69,1.84.33,3.9Z"/>
              </g>
            </g>
            <g class="st58">
              <g>
                <path class="st18" d="M273.49,311.1l-2.64,14.99c-.36,2.06-1.1,3.65-1.64,3.55h0c-.55-.1-.69-1.84-.33-3.9l2.64-14.99c.36-2.06,1.1-3.65,1.64-3.55h0c.55.1.69,1.84.33,3.9Z"/>
                <path class="st29" d="M273.49,311.1l-2.64,14.99c-.36,2.06-1.1,3.65-1.64,3.55h0c-.55-.1-.69-1.84-.33-3.9l2.64-14.99c.36-2.06,1.1-3.65,1.64-3.55h0c.55.1.69,1.84.33,3.9Z"/>
              </g>
            </g>
            <g class="st58">
              <g>
                <path class="st18" d="M289.1,363.57l-2.64,14.99c-.36,2.06-1.1,3.65-1.64,3.55h0c-.55-.1-.69-1.84-.33-3.9l2.64-14.99c.36-2.06,1.1-3.65,1.64-3.55h0c.55.1.69,1.84.33,3.9Z"/>
                <path class="st29" d="M289.1,363.57l-2.64,14.99c-.36,2.06-1.1,3.65-1.64,3.55h0c-.55-.1-.69-1.84-.33-3.9l2.64-14.99c.36-2.06,1.1-3.65,1.64-3.55h0c.55.1.69,1.84.33,3.9Z"/>
              </g>
            </g>
          </g>
        </g>
        <g class="st54">
          <g class="st41">
            <g class="st20">
              <g>
                <path class="st18" d="M305.55,391.34l-4.75,26.95c-.65,3.69-1.62,6.61-2.17,6.52h0c-.55-.1-.46-3.17.19-6.87l4.75-26.95c.65-3.69,1.62-6.61,2.17-6.52h0c.55.1.46,3.17-.19,6.87Z"/>
                <path class="st29" d="M305.55,391.34l-4.75,26.95c-.65,3.69-1.62,6.61-2.17,6.52h0c-.55-.1-.46-3.17.19-6.87l4.75-26.95c.65-3.69,1.62-6.61,2.17-6.52h0c.55.1.46,3.17-.19,6.87Z"/>
              </g>
            </g>
            <g class="st20">
              <g>
                <path class="st18" d="M328.31,345.15l-4.75,26.95c-.65,3.69-1.62,6.61-2.17,6.52h0c-.55-.1-.46-3.17.19-6.87l4.75-26.95c.65-3.69,1.62-6.61,2.17-6.52h0c.55.1.46,3.17-.19,6.87Z"/>
                <path class="st29" d="M328.31,345.15l-4.75,26.95c-.65,3.69-1.62,6.61-2.17,6.52h0c-.55-.1-.46-3.17.19-6.87l4.75-26.95c.65-3.69,1.62-6.61,2.17-6.52h0c.55.1.46,3.17-.19,6.87Z"/>
              </g>
            </g>
            <g class="st20">
              <g>
                <path class="st18" d="M333.4,366.03l-4.75,26.95c-.65,3.69-1.62,6.61-2.17,6.52h0c-.55-.1-.46-3.17.19-6.87l4.75-26.95c.65-3.69,1.62-6.61,2.17-6.52h0c.55.1.46,3.17-.19,6.87Z"/>
                <path class="st29" d="M333.4,366.03l-4.75,26.95c-.65,3.69-1.62,6.61-2.17,6.52h0c-.55-.1-.46-3.17.19-6.87l4.75-26.95c.65-3.69,1.62-6.61,2.17-6.52h0c.55.1.46,3.17-.19,6.87Z"/>
              </g>
            </g>
            <g class="st20">
              <g>
                <path class="st18" d="M319.02,326l-2.64,14.99c-.36,2.06-1.1,3.65-1.64,3.55h0c-.55-.1-.69-1.84-.33-3.9l2.64-14.99c.36-2.06,1.1-3.65,1.64-3.55h0c.55.1.69,1.84.33,3.9Z"/>
                <path class="st29" d="M319.02,326l-2.64,14.99c-.36,2.06-1.1,3.65-1.64,3.55h0c-.55-.1-.69-1.84-.33-3.9l2.64-14.99c.36-2.06,1.1-3.65,1.64-3.55h0c.55.1.69,1.84.33,3.9Z"/>
              </g>
            </g>
            <g class="st20">
              <g>
                <path class="st18" d="M303.42,359.19l-2.64,14.99c-.36,2.06-1.1,3.65-1.64,3.55h0c-.55-.1-.69-1.84-.33-3.9l2.64-14.99c.36-2.06,1.1-3.65,1.64-3.55h0c.55.1.69,1.84.33,3.9Z"/>
                <path class="st29" d="M303.42,359.19l-2.64,14.99c-.36,2.06-1.1,3.65-1.64,3.55h0c-.55-.1-.69-1.84-.33-3.9l2.64-14.99c.36-2.06,1.1-3.65,1.64-3.55h0c.55.1.69,1.84.33,3.9Z"/>
              </g>
            </g>
            <g class="st20">
              <g>
                <path class="st18" d="M319.02,411.66l-2.64,14.99c-.36,2.06-1.1,3.65-1.64,3.55h0c-.55-.1-.69-1.84-.33-3.9l2.64-14.99c.36-2.06,1.1-3.65,1.64-3.55h0c.55.1.69,1.84.33,3.9Z"/>
                <path class="st29" d="M319.02,411.66l-2.64,14.99c-.36,2.06-1.1,3.65-1.64,3.55h0c-.55-.1-.69-1.84-.33-3.9l2.64-14.99c.36-2.06,1.1-3.65,1.64-3.55h0c.55.1.69,1.84.33,3.9Z"/>
              </g>
            </g>
          </g>
        </g>
        <g class="st15">
          <g class="st43">
            <g class="st57">
              <g>
                <path class="st18" d="M146.28,316.23l-4.75,26.95c-.65,3.69-1.62,6.61-2.17,6.52h0c-.55-.1-.46-3.17.19-6.87l4.75-26.95c.65-3.69,1.62-6.61,2.17-6.52h0c.55.1.46,3.17-.19,6.87Z"/>
                <path class="st29" d="M146.28,316.23l-4.75,26.95c-.65,3.69-1.62,6.61-2.17,6.52h0c-.55-.1-.46-3.17.19-6.87l4.75-26.95c.65-3.69,1.62-6.61,2.17-6.52h0c.55.1.46,3.17-.19,6.87Z"/>
              </g>
            </g>
            <g class="st57">
              <g>
                <path class="st18" d="M169.05,270.05l-4.75,26.95c-.65,3.69-1.62,6.61-2.17,6.52h0c-.55-.1-.46-3.17.19-6.87l4.75-26.95c.65-3.69,1.62-6.61,2.17-6.52h0c.55.1.46,3.17-.19,6.87Z"/>
                <path class="st29" d="M169.05,270.05l-4.75,26.95c-.65,3.69-1.62,6.61-2.17,6.52h0c-.55-.1-.46-3.17.19-6.87l4.75-26.95c.65-3.69,1.62-6.61,2.17-6.52h0c.55.1.46,3.17-.19,6.87Z"/>
              </g>
            </g>
            <g class="st57">
              <g>
                <path class="st18" d="M174.14,290.93l-4.75,26.95c-.65,3.69-1.62,6.61-2.17,6.52h0c-.55-.1-.46-3.17.19-6.87l4.75-26.95c.65-3.69,1.62-6.61,2.17-6.52h0c.55.1.46,3.17-.19,6.87Z"/>
                <path class="st29" d="M174.14,290.93l-4.75,26.95c-.65,3.69-1.62,6.61-2.17,6.52h0c-.55-.1-.46-3.17.19-6.87l4.75-26.95c.65-3.69,1.62-6.61,2.17-6.52h0c.55.1.46,3.17-.19,6.87Z"/>
              </g>
            </g>
            <g class="st57">
              <g>
                <path class="st18" d="M159.75,250.89l-2.64,14.99c-.36,2.06-1.1,3.65-1.64,3.55h0c-.55-.1-.69-1.84-.33-3.9l2.64-14.99c.36-2.06,1.1-3.65,1.64-3.55h0c.55.1.69,1.84.33,3.9Z"/>
                <path class="st29" d="M159.75,250.89l-2.64,14.99c-.36,2.06-1.1,3.65-1.64,3.55h0c-.55-.1-.69-1.84-.33-3.9l2.64-14.99c.36-2.06,1.1-3.65,1.64-3.55h0c.55.1.69,1.84.33,3.9Z"/>
              </g>
            </g>
            <g class="st57">
              <g>
                <path class="st18" d="M144.15,284.09l-2.64,14.99c-.36,2.06-1.1,3.65-1.64,3.55h0c-.55-.1-.69-1.84-.33-3.9l2.64-14.99c.36-2.06,1.1-3.65,1.64-3.55h0c.55.1.69,1.84.33,3.9Z"/>
                <path class="st29" d="M144.15,284.09l-2.64,14.99c-.36,2.06-1.1,3.65-1.64,3.55h0c-.55-.1-.69-1.84-.33-3.9l2.64-14.99c.36-2.06,1.1-3.65,1.64-3.55h0c.55.1.69,1.84.33,3.9Z"/>
              </g>
            </g>
            <g class="st57">
              <g>
                <path class="st18" d="M159.75,336.55l-2.64,14.99c-.36,2.06-1.1,3.65-1.64,3.55h0c-.55-.1-.69-1.84-.33-3.9l2.64-14.99c.36-2.06,1.1-3.65,1.64-3.55h0c.55.1.69,1.84.33,3.9Z"/>
                <path class="st29" d="M159.75,336.55l-2.64,14.99c-.36,2.06-1.1,3.65-1.64,3.55h0c-.55-.1-.69-1.84-.33-3.9l2.64-14.99c.36-2.06,1.1-3.65,1.64-3.55h0c.55.1.69,1.84.33,3.9Z"/>
              </g>
            </g>
          </g>
        </g>
        <g class="st59">
          <g class="st43">
            <g>
              <path class="st18" d="M164.72,243.68l-4.75,26.95c-.65,3.69-1.62,6.61-2.17,6.52h0c-.55-.1-.46-3.17.19-6.87l4.75-26.95c.65-3.69,1.62-6.61,2.17-6.52h0c.55.1.46,3.17-.19,6.87Z"/>
              <path class="st29" d="M164.72,243.68l-4.75,26.95c-.65,3.69-1.62,6.61-2.17,6.52h0c-.55-.1-.46-3.17.19-6.87l4.75-26.95c.65-3.69,1.62-6.61,2.17-6.52h0c.55.1.46,3.17-.19,6.87Z"/>
            </g>
            <g>
              <path class="st18" d="M187.48,197.49l-4.75,26.95c-.65,3.69-1.62,6.61-2.17,6.52h0c-.55-.1-.46-3.17.19-6.87l4.75-26.95c.65-3.69,1.62-6.61,2.17-6.52h0c.55.1.46,3.17-.19,6.87Z"/>
              <path class="st29" d="M187.48,197.49l-4.75,26.95c-.65,3.69-1.62,6.61-2.17,6.52h0c-.55-.1-.46-3.17.19-6.87l4.75-26.95c.65-3.69,1.62-6.61,2.17-6.52h0c.55.1.46,3.17-.19,6.87Z"/>
            </g>
            <g>
              <path class="st18" d="M192.58,218.37l-4.75,26.95c-.65,3.69-1.62,6.61-2.17,6.52h0c-.55-.1-.46-3.17.19-6.87l4.75-26.95c.65-3.69,1.62-6.61,2.17-6.52h0c.55.1.46,3.17-.19,6.87Z"/>
              <path class="st29" d="M192.58,218.37l-4.75,26.95c-.65,3.69-1.62,6.61-2.17,6.52h0c-.55-.1-.46-3.17.19-6.87l4.75-26.95c.65-3.69,1.62-6.61,2.17-6.52h0c.55.1.46,3.17-.19,6.87Z"/>
            </g>
            <g>
              <path class="st18" d="M178.19,178.34l-2.64,14.99c-.36,2.06-1.1,3.65-1.64,3.55h0c-.55-.1-.69-1.84-.33-3.9l2.64-14.99c.36-2.06,1.1-3.65,1.64-3.55h0c.55.1.69,1.84.33,3.9Z"/>
              <path class="st29" d="M178.19,178.34l-2.64,14.99c-.36,2.06-1.1,3.65-1.64,3.55h0c-.55-.1-.69-1.84-.33-3.9l2.64-14.99c.36-2.06,1.1-3.65,1.64-3.55h0c.55.1.69,1.84.33,3.9Z"/>
            </g>
            <g>
              <path class="st18" d="M162.59,211.54l-2.64,14.99c-.36,2.06-1.1,3.65-1.64,3.55h0c-.55-.1-.69-1.84-.33-3.9l2.64-14.99c.36-2.06,1.1-3.65,1.64-3.55h0c.55.1.69,1.84.33,3.9Z"/>
              <path class="st29" d="M162.59,211.54l-2.64,14.99c-.36,2.06-1.1,3.65-1.64,3.55h0c-.55-.1-.69-1.84-.33-3.9l2.64-14.99c.36-2.06,1.1-3.65,1.64-3.55h0c.55.1.69,1.84.33,3.9Z"/>
            </g>
            <g>
              <path class="st18" d="M178.19,264l-2.64,14.99c-.36,2.06-1.1,3.65-1.64,3.55h0c-.55-.1-.69-1.84-.33-3.9l2.64-14.99c.36-2.06,1.1-3.65,1.64-3.55h0c.55.1.69,1.84.33,3.9Z"/>
              <path class="st29" d="M178.19,264l-2.64,14.99c-.36,2.06-1.1,3.65-1.64,3.55h0c-.55-.1-.69-1.84-.33-3.9l2.64-14.99c.36-2.06,1.1-3.65,1.64-3.55h0c.55.1.69,1.84.33,3.9Z"/>
            </g>
          </g>
        </g>
        <g class="st3">
          <g class="st43">
            <g>
              <path class="st18" d="M186.45,379.31l-4.75,26.95c-.65,3.69-1.62,6.61-2.17,6.52h0c-.55-.1-.46-3.17.19-6.87l4.75-26.95c.65-3.69,1.62-6.61,2.17-6.52h0c.55.1.46,3.17-.19,6.87Z"/>
              <path class="st29" d="M186.45,379.31l-4.75,26.95c-.65,3.69-1.62,6.61-2.17,6.52h0c-.55-.1-.46-3.17.19-6.87l4.75-26.95c.65-3.69,1.62-6.61,2.17-6.52h0c.55.1.46,3.17-.19,6.87Z"/>
            </g>
            <g>
              <path class="st18" d="M209.21,333.12l-4.75,26.95c-.65,3.69-1.62,6.61-2.17,6.52h0c-.55-.1-.46-3.17.19-6.87l4.75-26.95c.65-3.69,1.62-6.61,2.17-6.52h0c.55.1.46,3.17-.19,6.87Z"/>
              <path class="st29" d="M209.21,333.12l-4.75,26.95c-.65,3.69-1.62,6.61-2.17,6.52h0c-.55-.1-.46-3.17.19-6.87l4.75-26.95c.65-3.69,1.62-6.61,2.17-6.52h0c.55.1.46,3.17-.19,6.87Z"/>
            </g>
            <g>
              <path class="st18" d="M214.3,354l-4.75,26.95c-.65,3.69-1.62,6.61-2.17,6.52h0c-.55-.1-.46-3.17.19-6.87l4.75-26.95c.65-3.69,1.62-6.61,2.17-6.52h0c.55.1.46,3.17-.19,6.87Z"/>
              <path class="st29" d="M214.3,354l-4.75,26.95c-.65,3.69-1.62,6.61-2.17,6.52h0c-.55-.1-.46-3.17.19-6.87l4.75-26.95c.65-3.69,1.62-6.61,2.17-6.52h0c.55.1.46,3.17-.19,6.87Z"/>
            </g>
            <g>
              <path class="st18" d="M199.92,313.97l-2.64,14.99c-.36,2.06-1.1,3.65-1.64,3.55h0c-.55-.1-.69-1.84-.33-3.9l2.64-14.99c.36-2.06,1.1-3.65,1.64-3.55h0c.55.1.69,1.84.33,3.9Z"/>
              <path class="st29" d="M199.92,313.97l-2.64,14.99c-.36,2.06-1.1,3.65-1.64,3.55h0c-.55-.1-.69-1.84-.33-3.9l2.64-14.99c.36-2.06,1.1-3.65,1.64-3.55h0c.55.1.69,1.84.33,3.9Z"/>
            </g>
            <g>
              <path class="st18" d="M184.32,347.16l-2.64,14.99c-.36,2.06-1.1,3.65-1.64,3.55h0c-.55-.1-.69-1.84-.33-3.9l2.64-14.99c.36-2.06,1.1-3.65,1.64-3.55h0c.55.1.69,1.84.33,3.9Z"/>
              <path class="st29" d="M184.32,347.16l-2.64,14.99c-.36,2.06-1.1,3.65-1.64,3.55h0c-.55-.1-.69-1.84-.33-3.9l2.64-14.99c.36-2.06,1.1-3.65,1.64-3.55h0c.55.1.69,1.84.33,3.9Z"/>
            </g>
            <g>
              <path class="st18" d="M199.92,399.63l-2.64,14.99c-.36,2.06-1.1,3.65-1.64,3.55h0c-.55-.1-.69-1.84-.33-3.9l2.64-14.99c.36-2.06,1.1-3.65,1.64-3.55h0c.55.1.69,1.84.33,3.9Z"/>
              <path class="st29" d="M199.92,399.63l-2.64,14.99c-.36,2.06-1.1,3.65-1.64,3.55h0c-.55-.1-.69-1.84-.33-3.9l2.64-14.99c.36-2.06,1.1-3.65,1.64-3.55h0c.55.1.69,1.84.33,3.9Z"/>
            </g>
          </g>
        </g>
        <g class="st16">
          <g class="st43">
            <g>
              <path class="st18" d="M241.52,255.97l-4.75,26.95c-.65,3.69-1.62,6.61-2.17,6.52h0c-.55-.1-.46-3.17.19-6.87l4.75-26.95c.65-3.69,1.62-6.61,2.17-6.52h0c.55.1.46,3.17-.19,6.87Z"/>
              <path class="st29" d="M241.52,255.97l-4.75,26.95c-.65,3.69-1.62,6.61-2.17,6.52h0c-.55-.1-.46-3.17.19-6.87l4.75-26.95c.65-3.69,1.62-6.61,2.17-6.52h0c.55.1.46,3.17-.19,6.87Z"/>
            </g>
            <g>
              <path class="st18" d="M264.28,209.78l-4.75,26.95c-.65,3.69-1.62,6.61-2.17,6.52h0c-.55-.1-.46-3.17.19-6.87l4.75-26.95c.65-3.69,1.62-6.61,2.17-6.52h0c.55.1.46,3.17-.19,6.87Z"/>
              <path class="st29" d="M264.28,209.78l-4.75,26.95c-.65,3.69-1.62,6.61-2.17,6.52h0c-.55-.1-.46-3.17.19-6.87l4.75-26.95c.65-3.69,1.62-6.61,2.17-6.52h0c.55.1.46,3.17-.19,6.87Z"/>
            </g>
            <g>
              <path class="st18" d="M269.37,230.66l-4.75,26.95c-.65,3.69-1.62,6.61-2.17,6.52h0c-.55-.1-.46-3.17.19-6.87l4.75-26.95c.65-3.69,1.62-6.61,2.17-6.52h0c.55.1.46,3.17-.19,6.87Z"/>
              <path class="st29" d="M269.37,230.66l-4.75,26.95c-.65,3.69-1.62,6.61-2.17,6.52h0c-.55-.1-.46-3.17.19-6.87l4.75-26.95c.65-3.69,1.62-6.61,2.17-6.52h0c.55.1.46,3.17-.19,6.87Z"/>
            </g>
            <g>
              <path class="st18" d="M254.99,190.63l-2.64,14.99c-.36,2.06-1.1,3.65-1.64,3.55h0c-.55-.1-.69-1.84-.33-3.9l2.64-14.99c.36-2.06,1.1-3.65,1.64-3.55h0c.55.1.69,1.84.33,3.9Z"/>
              <path class="st29" d="M254.99,190.63l-2.64,14.99c-.36,2.06-1.1,3.65-1.64,3.55h0c-.55-.1-.69-1.84-.33-3.9l2.64-14.99c.36-2.06,1.1-3.65,1.64-3.55h0c.55.1.69,1.84.33,3.9Z"/>
            </g>
            <g>
              <path class="st18" d="M239.39,223.82l-2.64,14.99c-.36,2.06-1.1,3.65-1.64,3.55h0c-.55-.1-.69-1.84-.33-3.9l2.64-14.99c.36-2.06,1.1-3.65,1.64-3.55h0c.55.1.69,1.84.33,3.9Z"/>
              <path class="st29" d="M239.39,223.82l-2.64,14.99c-.36,2.06-1.1,3.65-1.64,3.55h0c-.55-.1-.69-1.84-.33-3.9l2.64-14.99c.36-2.06,1.1-3.65,1.64-3.55h0c.55.1.69,1.84.33,3.9Z"/>
            </g>
            <g>
              <path class="st18" d="M254.99,276.29l-2.64,14.99c-.36,2.06-1.1,3.65-1.64,3.55h0c-.55-.1-.69-1.84-.33-3.9l2.64-14.99c.36-2.06,1.1-3.65,1.64-3.55h0c.55.1.69,1.84.33,3.9Z"/>
              <path class="st29" d="M254.99,276.29l-2.64,14.99c-.36,2.06-1.1,3.65-1.64,3.55h0c-.55-.1-.69-1.84-.33-3.9l2.64-14.99c.36-2.06,1.1-3.65,1.64-3.55h0c.55.1.69,1.84.33,3.9Z"/>
            </g>
          </g>
        </g>
        <path class="st45" d="M243.52,81.05c49.8,0,90.24,40.44,90.24,90.24s-40.44,90.24-90.24,90.24-90.24-40.44-90.24-90.24,40.44-90.24,90.24-90.24Z"/>
        <g class="st23">
          <path class="st46" d="M156.08,123.01c28.39,0,51.44,23.05,51.44,51.44s-23.05,51.44-51.44,51.44-51.44-23.05-51.44-51.44,23.05-51.44,51.44-51.44Z"/>
        </g>
        <g class="st34">
          <path class="st46" d="M261.76,110.33c80.53,0,145.92,65.39,145.92,145.92s-65.39,145.92-145.92,145.92-145.92-65.39-145.92-145.92,65.39-145.92,145.92-145.92Z"/>
        </g>
        <g>
          <g>
            <path class="st36" d="M261.34,96.81c34.74,0,62.95,28.21,62.95,62.95s-28.21,62.95-62.95,62.95-62.95-28.21-62.95-62.95,28.21-62.95,62.95-62.95Z"/>
            <path class="st29" d="M261.34,96.81c34.74,0,62.95,28.21,62.95,62.95s-28.21,62.95-62.95,62.95-62.95-28.21-62.95-62.95,28.21-62.95,62.95-62.95Z"/>
          </g>
          <g>
            <path class="st39" d="M260.8,105.63c29.67,0,53.76,24.09,53.76,53.76s-24.09,53.76-53.76,53.76-53.76-24.09-53.76-53.76,24.09-53.76,53.76-53.76Z"/>
            <path class="st6" d="M260.8,105.63c29.67,0,53.76,24.09,53.76,53.76s-24.09,53.76-53.76,53.76-53.76-24.09-53.76-53.76,24.09-53.76,53.76-53.76Z"/>
          </g>
        </g>
        <path class="st27" d="M234.61,94.14c-12.37,5.13-23.38,13.92-31.21,25.99-20.66,31.85-11.44,74.51,20.58,95.28"/>
        <g class="st55">
          <g>
            <path class="st19" d="M191.63,285.53c-2.46,5.76-10.2,11.17-10.18,18.62.02,7.62,5.24,10.41,9.91,10.41s10.16-2.69,10.14-10.27c-.02-7.51-7.7-12.94-9.87-18.76Z"/>
            <path class="st37" d="M191.72,285.53c2.48,5.82,9.6,10.79,9.58,18.3-.02,7.68-5.24,10.5-9.91,10.5s4.72-4.3,4.74-11.96c.02-7.56-4.13-11.04-4.42-16.84Z"/>
            <path class="st19" d="M161.26,280.74c-2.6,5.7-10.46,10.93-10.62,18.37-.16,7.62,4.99,10.53,9.65,10.64,4.65.11,10.22-2.44,10.38-10.03.16-7.51-7.39-13.12-9.42-18.99Z"/>
            <path class="st37" d="M161.35,280.64c2.34,5.88,9.34,11.02,9.14,18.52-.2,7.68-5.49,10.37-10.16,10.26-4.65-.11,4.83-4.19,5.03-11.84.2-7.56-3.86-11.14-4.01-16.94Z"/>
            <path class="st19" d="M183.28,242.33c-2.46,5.76-10.2,11.17-10.18,18.62.02,7.62,5.24,10.41,9.91,10.41s10.16-2.69,10.14-10.27c-.02-7.51-7.7-12.94-9.87-18.76Z"/>
            <path class="st37" d="M183.37,242.33c2.48,5.82,9.6,10.79,9.58,18.3-.02,7.68-5.24,10.5-9.91,10.5s4.72-4.3,4.74-11.96c.02-7.56-4.13-11.04-4.42-16.84Z"/>
          </g>
        </g>
        <g>
          <path class="st35" d="M193.06,118.46c14.81,0,28.24,6.14,37.95,16.09,8.45,8.69,14.09,20.28,15.36,33.19,6.19,2.26,11.59,6.09,15.71,11.05,5.21,6.26,8.36,14.26,8.36,23,0,9.86-4,18.78-10.45,25.26-6.26,6.24-14.81,10.19-24.28,10.43h0l-98.59.02c-9.86,0-18.78-4-25.26-10.45-6.45-6.48-10.45-15.4-10.45-25.26s4-18.78,10.45-25.26c6.26-6.24,14.81-10.19,24.28-10.43h0l3.81-.02c1.55-12.24,7.07-23.21,15.17-31.52,9.71-9.95,23.14-16.09,37.95-16.09Z"/>
          <path class="st29" d="M193.06,118.46c14.81,0,28.24,6.14,37.95,16.09,8.45,8.69,14.09,20.28,15.36,33.19,6.19,2.26,11.59,6.09,15.71,11.05,5.21,6.26,8.36,14.26,8.36,23,0,9.86-4,18.78-10.45,25.26-6.26,6.24-14.81,10.19-24.28,10.43h0l-98.59.02c-9.86,0-18.78-4-25.26-10.45-6.45-6.48-10.45-15.4-10.45-25.26s4-18.78,10.45-25.26c6.26-6.24,14.81-10.19,24.28-10.43h0l3.81-.02c1.55-12.24,7.07-23.21,15.17-31.52,9.71-9.95,23.14-16.09,37.95-16.09Z"/>
        </g>
        <g>
          <path class="st56" d="M193.57,125.19c13.04,0,24.86,5.41,33.41,14.19,8.16,8.34,13.34,19.72,13.8,32.35,6.38,1.66,11.96,5.28,16.04,10.18,4.4,5.25,7.03,11.98,7.03,19.31,0,8.27-3.36,15.76-8.78,21.17s-12.9,8.78-21.17,8.78h-94.46c-8.27,0-15.76-3.36-21.17-8.78-5.41-5.41-8.78-12.9-8.78-21.17s3.36-15.76,8.78-21.17c5.41-5.41,12.9-8.78,21.17-8.78h6.96c.58-12.44,5.74-23.64,13.78-31.89,8.55-8.78,20.37-14.19,33.41-14.19Z"/>
          <path class="st28" d="M193.57,125.19c13.04,0,24.86,5.41,33.41,14.19,8.16,8.34,13.34,19.72,13.8,32.35,6.38,1.66,11.96,5.28,16.04,10.18,4.4,5.25,7.03,11.98,7.03,19.31,0,8.27-3.36,15.76-8.78,21.17s-12.9,8.78-21.17,8.78h-94.46c-8.27,0-15.76-3.36-21.17-8.78-5.41-5.41-8.78-12.9-8.78-21.17s3.36-15.76,8.78-21.17c5.41-5.41,12.9-8.78,21.17-8.78h6.96c.58-12.44,5.74-23.64,13.78-31.89,8.55-8.78,20.37-14.19,33.41-14.19Z"/>
        </g>
        <g class="st31">
          <path class="st38" d="M338.69,121.37c19.62,0,37.38,7.95,50.23,20.81,12.4,12.38,20.24,29.36,20.77,48.13l.02.88.13.08c5.4,3.34,10.02,7.8,13.54,13.04l.52.81c4.4,6.85,6.95,15.01,6.95,23.77,0,12.06-4.82,22.98-12.65,30.95-7.66,7.8-18.18,12.75-29.86,13.17h0l-115.08.04c-14.96-.58-28.4-7.03-38.09-17.11-9.6-10.02-15.51-23.6-15.51-38.57s6.24-29.3,16.3-39.38c10.08-10.06,24-16.3,39.38-16.3h-.71l.27-.56c5.26-10.69,13.11-19.87,22.75-26.71l.94-.65c11.4-7.83,25.23-12.4,40.11-12.4Z"/>
        </g>
        <g>
          <path class="st65" d="M338.69,127.13c18.03,0,34.35,7.32,46.16,19.12,11.81,11.81,19.12,28.13,19.12,46.16,0,.73-.02,1.44-.04,2.17,6.18,3.11,11.4,7.83,15.13,13.63,3.82,5.97,6.03,13.08,6.03,20.68,0,10.48-4.2,19.99-11,26.92-6.84,6.93-16.26,11.29-26.73,11.48h-113.99c-13.36-.54-25.38-6.32-34.04-15.34-8.62-8.97-13.92-21.16-13.92-34.58s5.59-26.27,14.63-35.29c9.02-9.04,21.5-14.63,35.29-14.63,1,0,2,.04,2.98.08,4.88-11.81,13.11-21.87,23.52-29.01,10.5-7.18,23.19-11.39,36.86-11.39h0Z"/>
          <path class="st6" d="M338.69,127.13c18.03,0,34.35,7.32,46.16,19.12,11.81,11.81,19.12,28.13,19.12,46.16,0,.73-.02,1.44-.04,2.17,6.18,3.11,11.4,7.83,15.13,13.63,3.82,5.97,6.03,13.08,6.03,20.68,0,10.48-4.2,19.99-11,26.92-6.84,6.93-16.26,11.29-26.73,11.48h-113.99c-13.36-.54-25.38-6.32-34.04-15.34-8.62-8.97-13.92-21.16-13.92-34.58s5.59-26.27,14.63-35.29c9.02-9.04,21.5-14.63,35.29-14.63,1,0,2,.04,2.98.08,4.88-11.81,13.11-21.87,23.52-29.01,10.5-7.18,23.19-11.39,36.86-11.39h0Z"/>
        </g>
        <g class="st48">
          <g>
            <path class="st19" d="M321.36,317.21c-2.46,5.76-10.2,11.17-10.18,18.62.02,7.62,5.24,10.41,9.91,10.41s10.16-2.69,10.14-10.27c-.02-7.51-7.7-12.94-9.87-18.76Z"/>
            <path class="st37" d="M321.44,317.21c2.48,5.82,9.6,10.79,9.58,18.3-.02,7.68-5.24,10.5-9.91,10.5s4.72-4.3,4.74-11.96c.02-7.56-4.13-11.04-4.42-16.84Z"/>
            <path class="st19" d="M290.64,317.21c-2.46,5.76-10.2,11.17-10.18,18.62.02,7.62,5.24,10.41,9.91,10.41s10.16-2.69,10.14-10.27c-.02-7.51-7.7-12.94-9.87-18.76Z"/>
            <path class="st37" d="M290.72,317.21c2.48,5.82,9.6,10.79,9.58,18.3-.02,7.68-5.24,10.5-9.91,10.5s4.72-4.3,4.74-11.96c.02-7.56-4.13-11.04-4.42-16.84Z"/>
            <path class="st19" d="M329.14,278.81c-2.46,5.76-10.2,11.17-10.18,18.62.02,7.62,5.24,10.41,9.91,10.41s10.16-2.69,10.14-10.27c-.02-7.51-7.7-12.94-9.87-18.76Z"/>
            <path class="st37" d="M329.23,278.81c2.48,5.82,9.6,10.79,9.58,18.3-.02,7.68-5.24,10.5-9.91,10.5s4.72-4.3,4.74-11.96c.02-7.56-4.13-11.04-4.42-16.84Z"/>
            <path class="st19" d="M298.42,278.81c-2.46,5.76-10.2,11.17-10.18,18.62.02,7.62,5.24,10.41,9.91,10.41s10.16-2.69,10.14-10.27c-.02-7.51-7.7-12.94-9.87-18.76Z"/>
            <path class="st37" d="M298.51,278.81c2.48,5.82,9.6,10.79,9.58,18.3-.02,7.68-5.24,10.5-9.91,10.5s4.72-4.3,4.74-11.96c.02-7.56-4.13-11.04-4.42-16.84Z"/>
          </g>
        </g>
        <g class="st63">
          <path class="st24" d="M182.16,377.22c-14.98-6.43-26.96,1.11-26.96,9.6s14.04,15.36,31.35,15.36,43.53-17.09,43.53-17.09c0,0-32.95-1.44-47.92-7.87Z"/>
        </g>
        <g class="st0">
          <g>
            <path class="st39" d="M188.2,363.29c-2.84,6.87-11.73,13.31-11.71,22.16.02,9.08,6.03,12.4,11.39,12.4s11.67-3.21,11.65-12.23c-.02-8.95-8.85-15.4-11.33-22.33Z"/>
            <path class="st39" d="M187.82,357.53c2.84-6.87,11.73-13.31,11.71-22.16-.02-9.08-6.03-12.4-11.39-12.4s-11.67,3.21-11.65,12.23c.02,8.95,8.85,15.4,11.33,22.33Z"/>
            <path class="st39" d="M186.75,359.43c-4.53-5.9-5.66-16.81-13.33-21.22-7.87-4.52-13.76-.98-16.43,3.66-2.68,4.64-3.06,11.71,4.76,16.21,7.76,4.46,17.76.03,25,1.35Z"/>
            <path class="st39" d="M190.41,360.76c4.53-5.9,5.66-16.81,13.33-21.22,7.87-4.52,13.76-.98,16.43,3.66s3.06,11.71-4.76,16.21c-7.76,4.46-17.76.03-25,1.35Z"/>
            <path class="st39" d="M186.94,361.73c-7.37.98-17.39-3.51-25.04.94-7.86,4.56-7.73,11.42-5.05,16.06,2.68,4.64,8.61,8.51,16.42,3.98,7.74-4.49,8.91-15.36,13.67-20.98Z"/>
            <path class="st39" d="M190.22,363.07c7.37.98,17.39-3.51,25.04.94,7.86,4.56,7.73,11.42,5.05,16.06s-8.61,8.51-16.42,3.98c-7.74-4.49-8.91-15.36-13.67-20.98Z"/>
            <path class="st21" d="M189.76,346.01c7.95,0,14.4,6.45,14.4,14.4s-6.45,14.4-14.4,14.4-14.4-6.45-14.4-14.4,6.45-14.4,14.4-14.4Z"/>
          </g>
        </g>
      </g>
    </g>
  </g>
</svg>